<svg width="24" height="24" viewBox="0 0 24 24" fill="none" xmlns="http://www.w3.org/2000/svg">
<path d="M5 9.99805V18.8669H5.01425C5.16191 20.6062 8.22903 21.998 12.0002 21.998C15.7714 21.998 18.8385 20.6077 18.9862 18.8669H19V9.99805H5Z" fill="#AF52DE"/>
<path fill-rule="evenodd" clip-rule="evenodd" d="M11.5532 3.10361C11.8347 2.96285 12.1661 2.96286 12.4476 3.10363L23.4472 8.60363C23.786 8.77302 24 9.11928 24 9.49805C24 9.87681 23.786 10.2231 23.4472 10.3925L12.4476 15.8925C12.1661 16.0332 11.8347 16.0332 11.5532 15.8925L0.552799 10.3925C0.214008 10.2231 0 9.87682 0 9.49805C0 9.11927 0.214008 8.773 0.552799 8.60361L11.5532 3.10361ZM3.23613 9.49805L12.0004 13.88L20.764 9.49805L12.0004 5.11608L3.23613 9.49805Z" fill="#84299A"/>
<path d="M23 9.49805L12 14.998L2 9.99805V16.998C2 17.5503 1.55228 17.998 1 17.998C0.447715 17.998 0 17.5503 0 16.998V9.99805C0 9.44576 0.447715 8.99805 1 8.99805C1.22479 8.99805 1.43163 9.07304 1.59863 9.19824L12 3.99805L23 9.49805Z" fill="#84299A"/>
</svg>
