<svg width="882.000000" height="757.000000" viewBox="0 0 882 757" fill="none" xmlns="http://www.w3.org/2000/svg" xmlns:xlink="http://www.w3.org/1999/xlink">
	<desc>
			Created with Pixso.
	</desc>
	<defs>
		<clipPath id="clip1399_6010">
			<rect id="404" rx="0.000000" width="881.000000" height="756.000000" transform="translate(0.500000 0.500000)" fill="white" fill-opacity="0"/>
		</clipPath>
	</defs>
	<rect id="404" rx="0.000000" width="881.000000" height="756.000000" transform="translate(0.500000 0.500000)" fill="#FFFFFF" fill-opacity="0"/>
	<g clip-path="url(#clip1399_6010)">
		<path id="Vector" d="M401.83 171.29C372.36 64.33 239.62 29.87 163.56 109.82C162.47 110.97 161.38 112.14 160.29 113.33C51.22 232 102.74 524.45 330.36 598.57C557.96 672.7 794.72 537.35 808.02 416.35C821.33 295.36 716.32 257.34 553.35 291.16C461.27 310.26 420.17 237.89 401.83 171.29Z" fill="#F9F4FA" fill-opacity="1.000000" fill-rule="nonzero"/>
		<path id="Vector" d="M631.48 195.92C601.02 200.88 592.58 227.88 616.1 247.05C623.88 253.37 634.98 258.64 650.79 261.26C711.02 271.27 742.99 244.59 718.85 210C703.92 188.66 661.65 191.01 631.48 195.92Z" fill="#CCE1F7" fill-opacity="1.000000" fill-rule="nonzero"/>
		<path id="Vector" d="M492.84 141.97L496 125.82L480.89 122.85C480.87 118.88 480.2 114.9 478.9 111.03L491.34 102.65L482.17 88.99L470.25 97C466.71 93.4 462.53 90.62 458.01 88.76L460.98 73.62L444.84 70.46L441.78 86.06C438.47 86.25 435.18 86.88 431.96 87.97L423.59 75.5L409.94 84.68L417.95 96.62C414.35 100.16 411.57 104.34 409.71 108.86L396.51 106.25L393.35 122.41L407.02 125.09C407.24 129.33 408.2 133.52 409.93 137.55L398 145.56L407.17 159.22L419.63 150.85C423.21 153.97 427.29 156.31 431.65 157.84L428.67 173.06L444.81 176.22L448.04 159.72C451.58 159.34 455.1 158.42 458.47 156.96L466.48 168.9L480.13 159.72L471.76 147.26C473.98 144.7 475.82 141.9 477.23 138.89L492.84 141.97ZM452.33 135.52C445.44 140.15 436.06 138.31 431.42 131.42C426.79 124.52 428.63 115.13 435.52 110.49C442.41 105.85 451.79 107.69 456.43 114.59C461.06 121.49 459.22 130.88 452.33 135.52Z" fill="#EDDFF0" fill-opacity="1.000000" fill-rule="nonzero"/>
		<path id="Vector" d="M401.67 67.76L403.4 58.94L395.14 57.31C395.14 55.15 394.76 52.96 394.05 50.85L400.85 46.27L395.83 38.8L389.33 43.19C387.39 41.21 385.11 39.7 382.64 38.69L384.27 30.41L375.45 28.68L373.78 37.21C371.96 37.31 370.16 37.65 368.42 38.26L363.85 31.44L356.38 36.46L360.76 42.98C358.79 44.91 357.28 47.19 356.26 49.67L349.05 48.25L347.32 57.08L354.79 58.56C354.92 60.88 355.44 63.18 356.38 65.36L349.87 69.75L354.89 77.22L361.7 72.64C363.65 74.35 365.89 75.63 368.27 76.46L366.64 84.77L375.47 86.5L377.23 77.47C379.16 77.26 381.09 76.76 382.93 75.96L387.32 82.47L394.78 77.45L390.21 70.65C391.43 69.25 392.43 67.72 393.19 66.07L401.67 67.76ZM379.52 64.23C375.75 66.76 370.62 65.76 368.1 61.99C365.57 58.21 366.56 53.08 370.33 50.55C374.11 48.02 379.24 49.01 381.76 52.79C384.31 56.56 383.3 61.68 379.52 64.23Z" fill="#EDDFF0" fill-opacity="1.000000" fill-rule="nonzero"/>
		<path id="Vector" d="M844.97 112.85L846.69 104.03L838.44 102.4C838.44 100.24 838.06 98.05 837.35 95.94L844.15 91.36L839.13 83.89L832.62 88.28C830.69 86.31 828.41 84.79 825.94 83.78L827.57 75.5L818.74 73.77L817.08 82.3C815.26 82.4 813.46 82.74 811.72 83.35L807.14 76.53L799.68 81.55L804.06 88.07C802.09 90 800.58 92.28 799.56 94.76L792.34 93.34L790.62 102.15L798.09 103.63C798.22 105.95 798.74 108.25 799.68 110.43L793.17 114.82L798.18 122.29L805 117.71C806.95 119.42 809.19 120.7 811.56 121.53L809.94 129.84L818.76 131.57L820.52 122.54C822.46 122.33 824.39 121.83 826.23 121.03L830.61 127.55L838.08 122.52L833.5 115.72C834.73 114.32 835.72 112.79 836.49 111.14L844.97 112.85ZM822.84 109.3C819.07 111.83 813.94 110.83 811.41 107.06C808.89 103.28 809.88 98.15 813.65 95.62C817.42 93.09 822.55 94.09 825.08 97.86C827.61 101.64 826.61 106.77 822.84 109.3Z" fill="#EDDFF0" fill-opacity="1.000000" fill-rule="nonzero"/>
		<path id="Vector" d="M91.33 222.5L93.05 213.66L84.8 212.04C84.8 209.87 84.42 207.69 83.71 205.58L90.51 201L85.49 193.52L78.98 197.91C77.05 195.94 74.77 194.42 72.3 193.41L73.93 185.13L65.1 183.41L63.44 191.93C61.64 192.03 59.82 192.37 58.08 192.99L53.5 186.17L46.04 191.19L50.42 197.7C48.45 199.64 46.94 201.92 45.92 204.39L38.7 202.97L36.98 211.79L44.45 213.26C44.58 215.58 45.1 217.88 46.04 220.06L39.53 224.45L44.54 231.93L51.36 227.35C53.31 229.05 55.55 230.34 57.92 231.16L56.3 239.48L65.12 241.2L66.88 232.18C68.82 231.96 70.75 231.47 72.59 230.66L76.97 237.18L84.44 232.16L79.86 225.35C81.09 223.95 82.08 222.42 82.85 220.77L91.33 222.5ZM69.2 218.95C65.43 221.48 60.3 220.49 57.77 216.71C55.25 212.94 56.24 207.8 60.01 205.27C63.78 202.74 68.91 203.74 71.44 207.51C73.97 211.29 72.97 216.42 69.2 218.95Z" fill="#EDDFF0" fill-opacity="1.000000" fill-rule="nonzero"/>
		<path id="Vector" d="M436.42 661.31C290.39 661.31 162.7 654.93 93.42 645.43C86.12 644.43 83.92 654.99 90.99 657C138.27 670.51 205.22 671.45 247.99 676.05C321.71 684 428.9 681.8 436.42 707.52C443.94 733.23 444.69 760.46 369.55 756.63C288.02 752.47 301.59 707.52 301.59 707.52C225.97 709.66 46.02 691.96 26.11 661.31C6.43 631.02 42.5 624.02 43.32 623.85C43.32 623.85 43.32 623.85 43.34 623.85C73.79 608.46 238.18 596.71 436.42 596.71C656.31 596.71 834.58 611.18 834.58 629.01C834.56 646.84 656.31 661.31 436.42 661.31Z" fill="#F9F4FA" fill-opacity="1.000000" fill-rule="nonzero"/>
		<path id="Vector" d="M163.56 567.7C146.03 550.01 107.74 508.55 83.6 461.48C48.97 393.93 14.26 399.97 7.44 423.84C-10.17 485.61 93.61 552.74 136.63 577.51L163.56 567.7Z" fill="#F9F4FA" fill-opacity="1.000000" fill-rule="nonzero"/>
		<path id="Vector" d="M154.09 571.15C123.88 548.46 98.32 521.63 80.97 501.4C57.77 474.32 43.78 452.86 43.64 452.65C43.15 451.88 42.11 451.65 41.35 452.17C40.58 452.67 40.35 453.7 40.85 454.47C40.98 454.68 55.07 476.29 78.41 503.53C95.56 523.53 120.64 549.94 150.37 572.51L154.09 571.15Z" fill="#EDDFF0" fill-opacity="1.000000" fill-rule="nonzero"/>
		<path id="Vector" d="M159.22 543.92C151.1 527.69 135.71 493.71 129.98 459.09C121.44 407.35 97.34 403.97 87.83 418.25C61.7 457.44 124.32 529.51 144.3 550.84L159.22 543.92Z" fill="#F9F4FA" fill-opacity="1.000000" fill-rule="nonzero"/>
		<path id="Vector" d="M153.55 546.57C138.29 525.14 127.05 501.9 119.86 484.78C110.3 462.08 105.63 445 105.57 444.83C105.4 444.22 104.77 443.85 104.16 444.02C103.55 444.2 103.18 444.83 103.35 445.44C103.39 445.61 108.1 462.8 117.71 485.65C124.91 502.78 136.17 526.04 151.42 547.54L153.55 546.57Z" fill="#D1D1D1" fill-opacity="1.000000" fill-rule="nonzero"/>
		<path id="Vector" d="M733.88 305.07C750.04 286.12 785.13 241.89 805.65 193.14C835.11 123.18 870.18 126.59 878.78 149.89C900.97 210.16 802.53 284.87 761.47 312.83L733.88 305.07Z" fill="#EDEFF7" fill-opacity="1.000000" fill-rule="evenodd"/>
		<path id="Vector" d="M743.6 307.79C772.03 282.9 795.5 254.23 811.28 232.73C832.39 203.99 844.72 181.55 844.86 181.32C845.3 180.51 846.31 180.21 847.12 180.67C847.92 181.11 848.23 182.12 847.79 182.93C847.67 183.16 835.25 205.77 814.02 234.67C798.41 255.9 775.36 284.11 747.43 308.87L743.6 307.79Z" fill="#D9DBE3" fill-opacity="1.000000" fill-rule="nonzero"/>
		<path id="Vector" d="M736.44 281.04C743.34 264.25 756.12 229.21 759.22 194.25C763.86 142.01 787.64 136.86 798.2 150.37C827.21 187.49 770.14 264.06 751.82 286.83L736.44 281.04Z" fill="#F9F4FA" fill-opacity="1.000000" fill-rule="nonzero"/>
		<path id="Vector" d="M742.28 283.23C755.89 260.71 765.37 236.7 771.27 219.09C779.1 195.73 782.47 178.35 782.5 178.17C782.62 177.56 783.23 177.14 783.84 177.27C784.48 177.39 784.88 178 784.76 178.61C784.72 178.79 781.34 196.28 773.45 219.78C767.55 237.41 758.08 261.44 744.47 284.03L742.28 283.23Z" fill="#EDDFF0" fill-opacity="1.000000" fill-rule="nonzero"/>
		<path id="Vector" d="M243.12 107C246.13 78.76 243.79 51.47 229.74 58.19C215.69 64.94 220.61 111.83 239.72 142.76L243.7 154.83C230.16 132.05 203.15 112.73 192.07 119.96C181.06 127.12 200.2 138.35 219.39 145.67C233.99 151.25 242.28 158.24 246.13 162.21L264.97 219.26C243.43 183.23 200.78 152.8 183.24 164.22C165.76 175.61 196.14 193.41 226.58 205.02C249.59 213.8 262.73 224.82 268.89 231.14L272.64 242.52C274.71 242.18 276.78 241.83 278.85 241.45L256.45 173.57C257.96 167.75 260.95 159.78 266.86 150.48C277.91 133.16 286.62 112.73 273.51 113.54C262.13 114.25 252.96 137.84 252.39 161.23L244.64 137.76C243.51 130.13 241.82 119.19 243.12 107Z" fill="#EDDFF0" fill-opacity="1.000000" fill-rule="nonzero"/>
		<path id="Vector" d="M189.69 399.43L221.2 399.43C204.18 396.61 161.97 378.47 158.2 342.1C153.43 296.03 137.05 296.6 109.42 291.77C81.8 286.96 74.2 294.82 56.66 259.04C39.12 223.28 0 218.78 0 218.78C0 218.78 35.66 257.72 28.83 287.33C22.01 316.93 45.65 328.74 64.59 332.48C83.52 336.19 78.98 361.66 86.18 378.03C89.47 385.5 102.91 393.22 116.54 399.43L189.69 399.43Z" fill="#F9F4FA" fill-opacity="1.000000" fill-rule="nonzero"/>
		<path id="Vector" d="M121.43 354.07C122.8 367.87 130.73 384.27 142.64 397.97C143.06 398.45 143.5 398.95 143.94 399.43L147.52 399.43C146.48 398.36 145.53 397.28 144.61 396.25C133.22 383.16 125.35 366.89 124.03 353.82C121.96 332.99 105.88 318.81 71.9 307.81C52.18 301.43 45.96 277.34 45.9 277.09C45.73 276.39 45.02 275.96 44.31 276.14C43.6 276.31 43.18 277.02 43.36 277.73C43.62 278.78 49.98 303.48 71.1 310.32C103.95 320.94 119.47 334.43 121.43 354.07Z" fill="#EDDFF0" fill-opacity="1.000000" fill-rule="nonzero"/>
		<path id="Vector" d="M173.48 399.43L239.72 399.43C239.73 399.37 239.75 399.3 239.77 399.24C241.63 392.61 242.68 385.81 242.91 378.93C243.7 355.72 244.1 297.45 229.11 282.52C210.27 263.76 172.52 256.42 177.5 228.11C182.47 199.81 178.74 160.62 134.04 154.26C89.34 147.9 54.42 77.49 54.42 77.49C54.42 77.49 39.72 134.27 79.94 177.79C120.16 221.31 105.17 227.67 97.07 268.64C88.98 309.61 79.38 332.07 140.74 363.37C157.38 371.84 167.52 384.91 173.48 399.43Z" fill="#EDEFF7" fill-opacity="1.000000" fill-rule="evenodd"/>
		<path id="Vector" d="M139.38 225.09C136.43 278.19 147.52 308.12 175.28 322.17C192.72 330.98 211.04 350.64 223.1 373.48C226.91 380.69 230.78 389.45 233.78 399.45L237.86 399.45C234.72 388.72 230.6 379.33 226.55 371.66C213.93 347.81 195.42 327.99 177.02 318.7C150.83 305.46 140.42 276.65 143.27 225.32C145.13 192.28 114.27 170.22 112.94 169.28C112.06 168.67 110.84 168.88 110.23 169.76C109.61 170.64 109.82 171.87 110.71 172.48C111.01 172.71 141.11 194.27 139.38 225.09Z" fill="#D9DBE3" fill-opacity="1.000000" fill-rule="nonzero"/>
		<path id="Vector" d="M559.84 294.32L592.12 294.32L624.83 272.99C632.88 260.33 639.92 246.51 638.6 238.46C635.71 220.81 618.02 201.96 631.84 188.5C645.68 175.03 659.05 152.21 637.18 131.15C615.32 110.07 623.97 57.96 623.97 57.96C623.97 57.96 593.67 83.09 598.47 122.64C603.28 162.19 592.62 159.76 572.11 178.88C551.59 198.01 537.56 206.48 558.67 247.7C566.58 263.1 565.03 279.78 559.84 294.32Z" fill="#F9F4FA" fill-opacity="1.000000" fill-rule="nonzero"/>
		<path id="Vector" d="M596 237.66C602.38 249.98 604.68 268.05 602.17 286.02C602.07 286.66 601.98 287.31 601.88 287.96L598.88 289.91C599.14 288.44 599.37 287.02 599.56 285.66C601.96 268.47 599.7 250.53 593.67 238.86C584.06 220.28 589.78 199.62 612.26 171.83C625.29 155.71 617.39 132.13 617.29 131.88C617.06 131.19 617.43 130.44 618.1 130.21C618.78 129.98 619.53 130.32 619.76 131.01C620.11 132.03 628.26 156.21 614.29 173.48C592.6 200.33 586.95 220.12 596 237.66Z" fill="#EDDFF0" fill-opacity="1.000000" fill-rule="nonzero"/>
		<path id="Vector" d="M681.37 294.32C685.16 291.18 689.41 288.34 694.23 285.87C755.57 254.58 746 232.1 737.9 191.15C729.78 150.2 714.81 143.83 755.03 100.3C795.23 56.78 780.53 0 780.53 0C780.53 0 745.61 70.4 700.91 76.76C656.21 83.12 652.48 122.31 657.46 150.62C662.43 178.92 624.68 186.26 605.84 205.02C592.21 218.59 591.31 267.99 591.85 294.3L681.37 294.3L681.37 294.32Z" fill="#EDEFF7" fill-opacity="1.000000" fill-rule="evenodd"/>
		<path id="Vector" d="M612.77 294.32C624.83 272.21 642.68 253.29 659.7 244.69C687.45 230.66 698.54 200.71 695.59 147.61C693.89 116.79 723.96 95.24 724.27 95.02C725.15 94.41 725.36 93.19 724.75 92.3C724.13 91.42 722.91 91.21 722.03 91.82C720.71 92.74 689.87 114.82 691.68 147.84C694.54 199.18 684.12 227.96 657.93 241.22C639.54 250.51 621.02 270.33 608.41 294.19C608.39 294.23 608.35 294.28 608.33 294.32L612.77 294.32Z" fill="#D9DBE3" fill-opacity="1.000000" fill-rule="nonzero"/>
		<path id="Vector" d="M761.33 216.58L761.33 563.26C761.33 577.55 749.75 589.13 735.49 589.13L145.24 589.13C130.96 589.13 119.4 577.53 119.4 563.26L119.4 216.58C119.4 202.28 130.98 190.71 145.24 190.71L735.47 190.71C749.75 190.71 761.33 202.28 761.33 216.58Z" fill="#49424A" fill-opacity="1.000000" fill-rule="nonzero"/>
		<path id="Vector" d="M732.81 234.21L732.81 545.63C732.81 554.79 725.38 562.22 716.23 562.22L164.48 562.22C160.61 562.22 157.05 560.9 154.24 558.68C153.49 558.08 152.8 557.43 152.15 556.72C149.51 553.79 147.9 549.9 147.9 545.63L147.9 234.21C147.9 225.05 155.33 217.61 164.48 217.61L716.23 217.61C719.29 217.61 722.16 218.44 724.61 219.89C726.93 221.25 728.88 223.17 730.3 225.43C731.91 227.98 732.81 230.99 732.81 234.21Z" fill="#FFFFFF" fill-opacity="1.000000" fill-rule="nonzero"/>
		<path id="Vector" d="M348.66 451.04L326.06 451.04L326.06 480.24L270.39 480.24L270.39 451.04L182.13 451.04L182.13 414.53L254.34 309.9L313.17 309.9L249 406.5L272.09 406.5L272.09 380.46L326.06 380.46L326.06 406.5L348.66 406.5L348.66 451.04Z" fill="#84299A" fill-opacity="1.000000" fill-rule="evenodd"/>
		<path id="Vector" d="M356.69 395.08C356.69 338.63 388.77 306.01 433.76 306.01C478.73 306.01 510.81 338.63 510.81 395.08C510.81 451.54 478.73 484.15 433.76 484.15C388.77 484.15 356.69 451.54 356.69 395.08ZM453.19 395.08C453.19 362.24 444.92 352 433.74 352C422.56 352 414.29 362.22 414.29 395.08C414.29 427.95 422.56 438.16 433.74 438.16C444.94 438.14 453.19 427.93 453.19 395.08Z" fill="#84299A" fill-opacity="1.000000" fill-rule="evenodd"/>
		<path id="Vector" d="M689.73 451.04L667.12 451.04L667.12 480.24L611.45 480.24L611.45 451.04L523.2 451.04L523.2 414.53L595.41 309.9L654.24 309.9L590.07 406.5L613.16 406.5L613.16 380.46L667.12 380.46L667.12 406.5L689.73 406.5L689.73 451.04Z" fill="#84299A" fill-opacity="1.000000" fill-rule="evenodd"/>
		<path id="Vector" d="M821.29 575.29L821.29 577.51C821.29 588.53 817.75 598.75 811.76 607.03C802.61 619.69 787.71 627.93 770.9 627.93L109.81 627.93C93 627.93 78.1 619.69 68.95 607.03C62.96 598.73 59.42 588.53 59.42 577.51L59.42 575.29L821.29 575.29Z" fill="#49424A" fill-opacity="1.000000" fill-rule="nonzero"/>
		<path id="Vector" d="M354.98 575.29L354.98 575.79C354.98 579.78 357.66 583.01 360.95 583.01L516.48 583.01C519.77 583.01 522.45 579.78 522.45 575.79L522.45 575.29L354.98 575.29Z" fill="#FFFFFF" fill-opacity="1.000000" fill-rule="nonzero"/>
		<path id="Vector" d="M732.81 234.21L732.81 252.58L147.9 252.58L147.9 234.21C147.9 230.66 148.99 227.4 150.89 224.72C153.87 220.43 158.85 217.63 164.48 217.63L716.23 217.63C721.86 217.63 726.83 220.43 729.8 224.72C731.72 227.4 732.81 230.66 732.81 234.21Z" fill="#F9F4FA" fill-opacity="1.000000" fill-rule="nonzero"/>
		<path id="Vector" d="M591.52 240.63L281.32 240.63C280.51 240.63 279.88 239.98 279.88 239.19L279.88 232.79C279.88 232 280.53 231.35 281.32 231.35L591.52 231.35C592.31 231.35 592.96 232 592.96 232.79L592.96 239.19C592.96 239.99 592.31 240.63 591.52 240.63Z" fill="#FFFFFF" fill-opacity="1.000000" fill-rule="nonzero"/>
		<path id="Vector" d="M205.1 235.99L205.1 239.44C205.1 240.43 204.03 241.05 203.19 240.55L200.2 238.83L197.22 237.1C196.35 236.6 196.35 235.38 197.22 234.88L200.2 233.15L203.19 231.43C204.05 230.93 205.1 231.54 205.1 232.54L205.1 235.99Z" fill="#01305A" fill-opacity="1.000000" fill-rule="nonzero"/>
		<path id="Vector" d="M220.59 235.99L220.59 239.44C220.59 240.43 221.66 241.05 222.51 240.55L225.49 238.83L228.48 237.1C229.34 236.6 229.34 235.38 228.48 234.88L225.49 233.15L222.51 231.43C221.64 230.93 220.59 231.54 220.59 232.54L220.59 235.99Z" fill="#01305A" fill-opacity="1.000000" fill-rule="nonzero"/>
		<g opacity="0.200000">
			<path id="Vector" d="M729.82 224.7L150.91 224.7C153.89 220.41 158.87 217.61 164.5 217.61L716.25 217.61C721.88 217.61 726.83 220.41 729.82 224.7Z" fill="#01305A" fill-opacity="1.000000" fill-rule="nonzero"/>
		</g>
		<path id="Vector" d="M613.08 535.62L259.74 535.62C252.83 535.62 247.24 530.01 247.24 523.11C247.24 516.19 252.85 510.6 259.74 510.6L613.06 510.6C619.97 510.6 625.56 516.21 625.56 523.11C625.58 530.03 619.99 535.62 613.08 535.62Z" fill="#EDEFF7" fill-opacity="1.000000" fill-rule="nonzero"/>
		<path id="Vector" d="M661.25 475.89C658.53 481.1 655.89 485.61 653.32 489.48C634.35 518.22 620.26 512.07 612.66 503.2C609.98 500.06 608.03 496.76 606.65 493.71C604.39 488.71 603.59 484.38 603.34 482.5L606.86 483.33C611.03 485.24 617.94 487.89 623.07 487.08C623.72 486.97 624.36 486.81 624.93 486.6C629.52 484.86 635.78 475.82 640.03 468.92C642.81 464.41 644.73 460.81 644.73 460.81L661.25 475.89Z" fill="#FFC0AD" fill-opacity="1.000000" fill-rule="nonzero"/>
		<path id="Vector" d="M661.25 475.89C658.53 481.1 655.89 485.61 653.32 489.48C647.92 483.58 643.06 474.86 640.05 468.9C642.83 464.39 644.74 460.79 644.74 460.79L661.25 475.89Z" fill="#FDA084" fill-opacity="1.000000" fill-rule="nonzero"/>
		<path id="Vector" d="M627.19 488.02C627.19 488.02 623.36 499.77 606.67 493.69C604.41 488.69 603.6 484.36 603.35 482.48L606.88 483.31C611.05 485.22 617.96 487.87 623.09 487.06L627.19 488.02Z" fill="#FDA084" fill-opacity="1.000000" fill-rule="nonzero"/>
		<path id="Vector" d="M782.81 517.97C778.98 540.09 761.02 523.86 759.47 506.57C759.13 502.7 759.03 498.72 759.09 494.9C759.15 491.34 759.34 487.91 759.59 484.78C759.63 484.17 759.68 483.6 759.74 483.02C760.41 475.51 761.35 470.22 761.35 470.22L773.09 455.77C773.09 455.77 774.46 459.83 776.21 466.06C777.81 471.83 779.77 479.46 781.22 487.47C781.66 489.88 782.06 492.35 782.41 494.81C783.54 503.08 783.96 511.34 782.81 517.97Z" fill="#FFC0AD" fill-opacity="1.000000" fill-rule="nonzero"/>
		<path id="Vector" d="M776.19 466.06C772.7 472.48 766.96 480.97 759.57 484.78C759.61 484.17 759.67 483.6 759.72 483.02C760.39 475.51 761.33 470.22 761.33 470.22L773.07 455.77C773.07 455.77 774.44 459.81 776.19 466.06Z" fill="#FDA084" fill-opacity="1.000000" fill-rule="nonzero"/>
		<path id="Vector" d="M782.39 494.81C778.14 497.39 764.22 496.17 759.07 494.9C759.15 490.65 759.4 486.57 759.7 483L781.2 487.45C781.66 489.88 782.06 492.35 782.39 494.81Z" fill="#FDA084" fill-opacity="1.000000" fill-rule="nonzero"/>
		<path id="Vector" d="M658.83 420.86C658.83 420.86 641.83 450.9 639.04 461.08C639.04 461.08 650.66 480.51 661.19 482.66L665.09 469.41C665.09 469.41 665.52 427.95 658.83 420.86Z" fill="#FFFFFF" fill-opacity="1.000000" fill-rule="evenodd"/>
		<path id="Vector" d="M696.18 405.41L658.85 420.84L675.38 548.92C675.38 548.92 726.78 556.15 753.35 548.92L753.35 420.84L717.05 404.59L696.18 405.41Z" fill="#FFFFFF" fill-opacity="1.000000" fill-rule="evenodd"/>
		<path id="Vector" d="M632.86 630.44L636.86 609.82L623.17 609.82L619.82 629.29C619.82 629.29 625.31 632.86 632.86 630.44Z" fill="#FFC0AD" fill-opacity="1.000000" fill-rule="nonzero"/>
		<path id="Vector" d="M623.47 630.23C623.47 630.23 620.43 626.25 618.06 626.44C615.68 626.63 597.5 641.44 591.24 642.73C584.96 644.01 586.24 648.63 587.43 650.97C588.61 653.32 637.55 649.49 637.55 649.49C637.55 649.49 638.73 634.89 637.07 630.44C635.42 626.02 628.39 631.23 623.47 630.23Z" fill="#1E1E2D" fill-opacity="1.000000" fill-rule="nonzero"/>
		<path id="Vector" d="M613.46 640.54C613.69 640.6 613.94 640.58 614.15 640.45C614.57 640.2 614.71 639.66 614.46 639.24C614.38 639.1 612.41 635.79 609.83 634.51C606.36 632.8 603.72 634.77 603.6 634.87C603.22 635.16 603.14 635.71 603.43 636.09C603.72 636.48 604.27 636.56 604.66 636.27C604.73 636.21 606.57 634.89 609.04 636.09C611.17 637.13 612.91 640.1 612.93 640.14C613.06 640.33 613.25 640.48 613.46 640.54Z" fill="#FFFFFF" fill-opacity="1.000000" fill-rule="nonzero"/>
		<path id="Vector" d="M616.05 638.03C616.28 638.09 616.53 638.07 616.74 637.95C617.16 637.71 617.29 637.17 617.04 636.75C616.97 636.61 615 633.3 612.41 632.01C608.95 630.31 606.3 632.28 606.19 632.38C605.81 632.67 605.73 633.22 606.02 633.6C606.3 633.99 606.86 634.06 607.24 633.78C607.32 633.72 609.18 632.4 611.63 633.6C613.75 634.64 615.49 637.61 615.51 637.65C615.65 637.82 615.84 637.97 616.05 638.03Z" fill="#FFFFFF" fill-opacity="1.000000" fill-rule="nonzero"/>
		<path id="Vector" d="M609.92 642.59C610.15 642.65 610.4 642.63 610.61 642.52C611.03 642.27 611.17 641.73 610.92 641.31C610.84 641.17 608.87 637.86 606.28 636.57C602.82 634.87 600.18 636.84 600.06 636.94C599.68 637.23 599.6 637.78 599.89 638.17C600.18 638.55 600.73 638.63 601.12 638.34C601.19 638.28 603.05 636.96 605.5 638.17C607.62 639.2 609.37 642.17 609.39 642.21C609.52 642.4 609.71 642.53 609.92 642.59Z" fill="#FFFFFF" fill-opacity="1.000000" fill-rule="nonzero"/>
		<path id="Vector" d="M694.94 536.1C694.94 536.1 671.53 477.9 656.96 480.18C634.43 483.73 619.34 553.02 621.2 617.66L636.67 618.54C636.67 618.54 653.97 557.66 657.07 541.7C657.07 541.7 669 583.13 695.86 577.36C715.75 573.09 702.79 552.72 694.94 536.1Z" fill="#1E1E2D" fill-opacity="1.000000" fill-rule="evenodd"/>
		<path id="Vector" d="M634.83 615.88L632.93 615.53C632.97 615.3 637.09 592.65 642.08 569.75C652.25 523.05 656.08 520.87 657.34 520.14C658.39 519.55 659.26 519.7 659.79 519.93C662.34 521.04 663.62 526.48 665.55 534.74C668.68 548.08 672.96 566.34 684.79 573.99L683.74 575.62C671.26 567.55 666.88 548.84 663.66 535.18C662.13 528.63 660.67 522.42 659.01 521.71C658.91 521.67 658.72 521.58 658.3 521.83C653.05 524.82 641.39 579.7 634.83 615.88Z" fill="#FFFFFF" fill-opacity="1.000000" fill-rule="evenodd"/>
		<path id="Vector" d="M619.67 612.91L638.62 614.5L638.98 614.54L637.95 620.82L619.32 619.5L619.67 612.91Z" fill="#FFFFFF" fill-opacity="1.000000" fill-rule="evenodd"/>
		<path id="Vector" d="M688.95 577.67C688.95 577.67 716.17 582.9 752.28 576.4C749.31 561.47 742.55 549.75 731.54 539.32L682.86 542.85C679.8 554.34 682.02 565.96 688.95 577.67Z" fill="#1E1E2D" fill-opacity="1.000000" fill-rule="nonzero"/>
		<path id="Vector" d="M681.18 625.82C681.18 625.82 674.72 624.4 672.96 624.52C671.2 624.64 659.98 638.38 656.04 639.33C648.9 641.06 649.38 652.33 653.8 652.69C666.57 653.74 688.03 647.4 688.03 647.4C688.03 647.4 689.39 632.86 688.32 628.35C687.24 623.87 684.77 627.01 681.18 625.82Z" fill="#1E1E2D" fill-opacity="1.000000" fill-rule="nonzero"/>
		<path id="Vector" d="M684.97 626.82L689.71 608.29L676.05 608.29L672.98 626.17C672.96 626.15 677.44 629.24 684.97 626.82Z" fill="#FFC0AD" fill-opacity="1.000000" fill-rule="nonzero"/>
		<path id="Vector" d="M671.22 638.64C671.45 638.68 671.7 638.63 671.89 638.49C672.27 638.2 672.37 637.65 672.08 637.26C671.99 637.13 669.69 634.04 666.97 633.07C663.35 631.75 660.92 633.99 660.82 634.08C660.48 634.41 660.46 634.98 660.79 635.33C661.11 635.67 661.67 635.69 662.03 635.37C662.09 635.31 663.79 633.78 666.38 634.71C668.6 635.52 670.65 638.28 670.66 638.32C670.8 638.49 671.01 638.61 671.22 638.64Z" fill="#FFFFFF" fill-opacity="1.000000" fill-rule="nonzero"/>
		<path id="Vector" d="M673.54 635.87C673.77 635.9 674.02 635.85 674.21 635.71C674.59 635.42 674.68 634.87 674.4 634.49C674.3 634.35 672.01 631.27 669.29 630.29C665.67 628.97 663.24 631.21 663.14 631.3C662.8 631.63 662.78 632.19 663.1 632.55C663.43 632.9 664 632.91 664.35 632.59C664.4 632.53 666.11 631 668.69 631.94C670.91 632.74 672.96 635.5 672.98 635.54C673.12 635.71 673.33 635.83 673.54 635.87Z" fill="#FFFFFF" fill-opacity="1.000000" fill-rule="nonzero"/>
		<path id="Vector" d="M667.93 641.06C668.16 641.1 668.41 641.04 668.6 640.9C668.98 640.62 669.08 640.06 668.79 639.68C668.69 639.55 666.4 636.46 663.68 635.48C660.06 634.16 657.63 636.4 657.53 636.5C657.19 636.82 657.17 637.4 657.49 637.74C657.82 638.09 658.39 638.11 658.74 637.78C658.8 637.72 660.5 636.19 663.08 637.13C665.31 637.94 667.35 640.69 667.37 640.73C667.51 640.9 667.72 641.02 667.93 641.06Z" fill="#FFFFFF" fill-opacity="1.000000" fill-rule="nonzero"/>
		<path id="Vector" d="M748.94 577.36C745.48 578.11 742.28 578.07 739.32 577.44C738.34 577.23 737.4 576.96 736.48 576.63C718.35 570.19 710.16 541.7 710.16 541.7C707.06 557.66 689.1 618.5 689.1 618.5L686.31 618.14L684.37 617.89L673.79 616.49C671.7 553.92 687.51 483.75 710.04 480.2C724.59 477.9 748.03 536.12 748.03 536.12C755.88 552.72 768.84 573.09 748.94 577.36Z" fill="#1E1E2D" fill-opacity="1.000000" fill-rule="evenodd"/>
		<path id="Vector" d="M739.32 577.44C738.34 577.23 737.4 576.96 736.48 576.63C729.86 565.94 726.39 550.99 723.6 538.96C721.38 529.38 719.29 520.33 716.55 518.8C716.13 518.57 715.73 518.53 715.25 518.68C712.92 519.45 707.42 527.19 696.84 570.48C691.78 591.1 687.61 611.66 686.33 618.16C686.06 619.48 685.9 620.23 685.9 620.27L684.01 619.9C684.01 619.86 684.14 619.17 684.39 617.91C685.66 611.55 689.87 590.83 694.96 570.04C707.38 519.26 712.86 517.46 714.66 516.86C715.67 516.54 716.63 516.63 717.53 517.13C721.01 519.1 722.91 527.25 725.51 538.56C728.4 551.13 732.08 566.99 739.32 577.44Z" fill="#FFFFFF" fill-opacity="1.000000" fill-rule="evenodd"/>
		<path id="Vector" d="M672.52 612.06L691.23 615.48L691.59 615.55L689.94 621.7L671.53 618.6L672.52 612.06Z" fill="#FFFFFF" fill-opacity="1.000000" fill-rule="evenodd"/>
		<path id="Vector" d="M753.33 420.86L777.55 455.96C777.55 455.96 766.79 476.26 756.26 478.38C756.26 478.38 745.29 459.2 744.01 449.41C742.7 439.6 749.54 421.7 753.33 420.86Z" fill="#FFFFFF" fill-opacity="1.000000" fill-rule="evenodd"/>
		<path id="Vector" d="M683.89 366.53C683.89 380.15 692.28 389.54 705.89 389.54C719.5 389.54 728.98 379.44 728.98 365.82C728.98 352.19 720.92 341.87 707.31 341.87C691 341.88 683.89 352.9 683.89 366.53Z" fill="#01305A" fill-opacity="1.000000" fill-rule="nonzero"/>
		<path id="Vector" d="M684.7 359.02C684.7 359.02 674.55 348.97 678.34 344.24C682.13 339.51 687.07 344.03 688.58 339.51C690.1 334.99 690.69 329.18 696.84 331.54C703 333.91 703.27 337.78 709.16 334.33C715.04 330.88 713.76 336.71 718.91 339.28C724.08 341.87 727.68 341.42 726.83 346.39C725.99 351.33 731.79 352.37 729.42 357.83C727.04 363.31 724.29 360.53 724.29 360.53L684.7 359.02Z" fill="#1E1E2D" fill-opacity="1.000000" fill-rule="evenodd"/>
		<path id="Vector" d="M686.96 372.39C686.96 372.39 683.17 367.35 680.37 371.51C677.56 375.69 681.54 388.01 688.41 385L686.96 372.39Z" fill="#FDA084" fill-opacity="1.000000" fill-rule="nonzero"/>
		<path id="Vector" d="M686.9 381.21C686.65 381.21 686.42 381.03 686.34 380.79C685.27 376.97 681.35 375.44 681.29 375.42C680.98 375.3 680.83 374.96 680.95 374.67C681.06 374.37 681.39 374.21 681.69 374.33C681.88 374.4 686.21 376.09 687.45 380.46C687.55 380.77 687.36 381.09 687.05 381.17C687.01 381.21 686.96 381.21 686.9 381.21Z" fill="#FF7972" fill-opacity="1.000000" fill-rule="nonzero"/>
		<path id="Vector" d="M682.94 379.29C682.82 379.29 682.73 379.25 682.63 379.19C682.36 379.02 682.29 378.66 682.46 378.39C682.5 378.35 683.19 377.28 684.64 376.63C684.93 376.49 685.27 376.63 685.41 376.91C685.54 377.2 685.41 377.55 685.12 377.68C683.99 378.18 683.43 379 683.43 379C683.3 379.19 683.13 379.29 682.94 379.29Z" fill="#FF7972" fill-opacity="1.000000" fill-rule="nonzero"/>
		<path id="Vector" d="M725.92 372.39C725.92 372.39 729.71 367.35 732.5 371.51C735.31 375.69 731.33 388.01 724.46 385L725.92 372.39Z" fill="#FDA084" fill-opacity="1.000000" fill-rule="nonzero"/>
		<path id="Vector" d="M725.97 381.21C726.22 381.21 726.45 381.03 726.53 380.79C727.6 376.97 731.52 375.44 731.58 375.42C731.89 375.3 732.04 374.96 731.93 374.67C731.81 374.37 731.49 374.21 731.18 374.33C730.99 374.4 726.66 376.09 725.42 380.46C725.32 380.77 725.51 381.09 725.82 381.17C725.88 381.21 725.91 381.21 725.97 381.21Z" fill="#FF7972" fill-opacity="1.000000" fill-rule="nonzero"/>
		<path id="Vector" d="M729.95 379.29C730.07 379.29 730.17 379.25 730.26 379.19C730.53 379.02 730.61 378.66 730.43 378.39C730.39 378.35 729.71 377.28 728.25 376.63C727.96 376.49 727.62 376.63 727.48 376.91C727.35 377.2 727.48 377.55 727.77 377.68C728.9 378.18 729.46 379 729.46 379C729.57 379.19 729.76 379.29 729.95 379.29Z" fill="#FF7972" fill-opacity="1.000000" fill-rule="nonzero"/>
		<path id="Vector" d="M715.75 395.46L715.75 407.73C715.75 407.73 712.09 413.98 707.15 414.4C702.21 414.82 697.83 409.03 697.83 409.03L697.83 396.35L715.75 395.46Z" fill="#FFC0AD" fill-opacity="1.000000" fill-rule="nonzero"/>
		<path id="Vector" d="M715.75 395.46L715.75 400.91C712.44 404.59 706.54 405.51 697.85 404.22L697.85 396.33L715.75 395.46Z" fill="#FDA084" fill-opacity="1.000000" fill-rule="nonzero"/>
		<path id="Vector" d="M684.93 372.01C685.12 374.62 685.43 377.36 685.92 380.08C687.57 389.12 691.26 397.99 699.23 400.85C717.26 407.31 723.71 391.8 726.3 382.78C726.59 381.78 726.83 380.67 727.06 379.46C727.47 377.32 727.79 374.9 728.04 372.49C728.33 369.56 728.54 366.59 728.65 363.98C728.92 358.48 725.63 353.44 720.5 351.47C713.11 348.61 701.85 346.37 691.21 352.4C687.26 354.63 684.81 358.77 684.72 363.29C684.68 365.76 684.7 368.77 684.93 372.01Z" fill="#FFC0AD" fill-opacity="1.000000" fill-rule="nonzero"/>
		<path id="Vector" d="M698.69 374C698.69 375.3 698.02 376.38 697.18 376.38C696.36 376.38 695.67 375.32 695.67 374C695.67 372.68 696.34 371.63 697.18 371.63C698.02 371.63 698.69 372.68 698.69 374Z" fill="#1E1E2D" fill-opacity="1.000000" fill-rule="evenodd"/>
		<path id="Vector" d="M716.44 373.94C716.44 375.25 715.77 376.32 714.93 376.32C714.1 376.32 713.41 375.27 713.41 373.94C713.41 372.64 714.08 371.57 714.93 371.57C715.77 371.59 716.44 372.64 716.44 373.94Z" fill="#1E1E2D" fill-opacity="1.000000" fill-rule="evenodd"/>
		<path id="Vector" d="M690.71 368.2C690.71 368.2 695.65 364.44 700.43 365.09L700.66 367.58C700.66 367.58 694.25 368.81 691.44 370.97C690.92 370.15 690.61 369.25 690.71 368.2Z" fill="#1E1E2D" fill-opacity="1.000000" fill-rule="evenodd"/>
		<path id="Vector" d="M721.49 368.2C721.49 368.2 716.55 364.44 711.77 365.09L711.54 367.58C711.54 367.58 717.95 368.81 720.77 370.97C721.28 370.15 721.59 369.25 721.49 368.2Z" fill="#1E1E2D" fill-opacity="1.000000" fill-rule="evenodd"/>
		<path id="Vector" d="M706.64 383.16C707.61 383.16 708.59 382.78 708.74 382.72C709.05 382.61 709.18 382.26 709.07 381.95C708.95 381.65 708.61 381.51 708.3 381.63C707.79 381.84 706.52 382.18 705.97 381.86C705.87 381.8 705.72 381.67 705.68 381.32C705.47 379.29 706.02 372.47 706.02 372.41C706.04 372.09 705.81 371.82 705.49 371.78C705.16 371.76 704.89 371.99 704.86 372.32C704.84 372.6 704.28 379.31 704.51 381.46C704.59 382.26 705.01 382.68 705.35 382.87C705.76 383.09 706.2 383.16 706.64 383.16Z" fill="#FDA084" fill-opacity="1.000000" fill-rule="nonzero"/>
		<path id="Vector" d="M705.73 390C700.95 390 700.66 391.92 705.43 391.99C705.6 391.99 705.79 392 705.98 392C706.17 392 706.34 392 706.53 391.99C711.33 391.93 711.06 390 706.26 390L705.73 390Z" fill="#FFFFFF" fill-opacity="1.000000" fill-rule="nonzero"/>
		<path id="Vector" d="M728.04 372.51L725.4 372.51C725.68 369.86 726.11 365.19 723.92 364.52C717.05 362.41 725.95 357.54 722.85 355.13C719.75 352.69 712.04 353.75 706.66 353.55C701.26 353.38 692.59 353.46 690.46 353.94C688.35 354.42 689.5 357.92 690.29 360.65C691.07 363.37 687.7 366.36 687.13 369.17C686.98 369.98 687 371.18 687.13 372.49L684.93 372.49C684.66 369.06 684.62 365.88 684.68 363.29C684.77 358.77 687.22 354.63 691.17 352.4C701.81 346.37 713.07 348.61 720.46 351.47C725.59 353.44 728.88 358.48 728.61 363.98C728.54 366.6 728.35 369.58 728.04 372.51Z" fill="#1E1E2D" fill-opacity="1.000000" fill-rule="evenodd"/>
		<path id="Vector" d="M848.24 576.29C844.97 589.07 835.82 598.75 821.81 604.3C818.09 605.78 814.51 606.78 811.43 607.45C811.55 607.29 811.64 607.16 811.76 607.01C813.94 604 815.8 600.74 817.27 597.27C826.52 593.9 837.05 587.27 840.38 574.26C843.57 561.74 838.4 543.04 827.21 526.58C818.32 513.55 798.16 491.03 762.92 486.66C732.16 482.85 712.17 487.54 694.54 491.66C679.55 495.17 665.38 498.49 648.06 495.44C635.34 493.22 625.56 489.98 616.95 487.12C601.1 481.87 590.62 478.4 573.99 485.22C545.94 496.72 533.44 544.4 533.31 544.88L525.42 542.87C525.97 540.74 539.05 490.74 570.91 477.69C590.32 469.74 603.2 473.99 619.49 479.4C627.84 482.18 637.32 485.3 649.45 487.43C665.15 490.17 677.9 487.2 692.66 483.73C710.96 479.44 731.7 474.59 763.9 478.57C778.94 480.43 792.96 485.61 805.57 493.94C816.56 501.21 826.34 510.9 833.91 521.98C846.58 540.59 852.07 561.4 848.24 576.29Z" fill="#4E0D5E" fill-opacity="1.000000" fill-rule="nonzero"/>
		<path id="Vector" d="M456.1 620.23L474.34 562.49C482.12 537.9 508.34 524.26 532.9 532.04C557.47 539.82 571.1 566.07 563.33 590.66L545.08 648.4C508.11 636.71 493.2 631.99 456.1 620.23Z" fill="#84299A" fill-opacity="1.000000" fill-rule="nonzero"/>
		<path id="Vector" d="M599.32 483.4C599.32 483.4 600.9 479.76 604.04 474.86C605.65 472.37 609.39 471.16 609.79 474.13C610.11 476.49 608.43 478.27 608.08 480.57C608.08 480.57 608.91 479.26 610.74 475.85C612.41 472.79 614.69 473.02 615.01 475.34C615.34 477.54 614.69 477.44 614.15 479.11C613.43 481.32 612.39 484.09 612.39 484.09C612.39 484.09 613.18 480.89 615.89 477.21C617.14 475.53 618.36 473.67 620.22 476.28C621.14 477.58 619.93 481.14 618.94 484.96C618.94 484.96 620.93 479.86 623.47 478.54C625.49 477.5 626.52 478.4 625.73 481.22C624.72 484.84 624.09 485.84 623.32 487.98C622.56 490.13 619.74 493.2 617.52 492.49C615.3 491.78 614.8 490.23 613.29 490.11C611.78 490 609.33 490.13 608.29 489.19C607.26 488.25 606.19 488.04 604.43 487.98C602.7 487.96 599.22 485.72 599.32 483.4Z" fill="#FFC0AD" fill-opacity="1.000000" fill-rule="nonzero"/>
		<path id="Vector" d="M757.29 486.95C757.29 486.95 758.29 483.12 760.66 477.79C761.87 475.09 764.91 473.13 765.77 476.03C766.46 478.31 765.52 480.49 765.54 482.81C765.54 482.81 766.15 481.39 767.46 477.75C768.62 474.45 770.9 474.34 771.61 476.58C772.26 478.71 771.61 478.71 771.34 480.45C770.96 482.75 770.37 485.65 770.37 485.65C770.37 485.65 770.65 482.37 772.78 478.31C773.76 476.45 774.67 474.42 776.89 476.72C778.01 477.87 777.35 481.56 776.95 485.49C776.95 485.49 777.41 480.82 779.73 479.13C781.57 477.79 783.44 477.87 783.1 480.76C782.66 484.5 782.18 485.59 781.76 487.83C781.34 490.07 779.02 493.54 776.72 493.18C774.41 492.81 773.7 491.36 772.17 491.47C770.65 491.61 768.26 492.1 767.09 491.34C765.93 490.57 764.83 490.53 763.09 490.74C761.33 490.92 757.54 489.25 757.29 486.95Z" fill="#FFC0AD" fill-opacity="1.000000" fill-rule="nonzero"/>
		<path id="Vector" d="M447.08 676.05C447.08 677.64 446.45 679.08 445.4 680.11C444.36 681.15 442.93 681.8 441.34 681.8L418.46 681.8L418.46 670.3L441.34 670.3C444.5 670.3 447.08 672.87 447.08 676.05Z" fill="#4E0D5E" fill-opacity="1.000000" fill-rule="nonzero"/>
		<path id="Vector" d="M447.08 716.93C447.08 718.52 446.45 719.95 445.4 720.99C444.36 722.02 442.93 722.67 441.34 722.67L418.46 722.67L418.46 711.18L441.34 711.18C444.5 711.18 447.08 713.74 447.08 716.93Z" fill="#4E0D5E" fill-opacity="1.000000" fill-rule="nonzero"/>
		<path id="Vector" d="M418.46 670.3L428.9 670.3L428.9 681.8L418.46 681.8L418.46 670.3Z" fill="#84299A" fill-opacity="1.000000" fill-rule="evenodd"/>
		<path id="Vector" d="M418.46 711.18L428.9 711.18L428.9 722.67L418.46 722.67L418.46 711.18Z" fill="#84299A" fill-opacity="1.000000" fill-rule="evenodd"/>
		<path id="Vector" d="M327.66 689.75L327.36 698.85C232.54 695.52 158.99 688.6 108.79 678.27C65.74 669.42 38.78 658.06 26.36 643.49C19.98 636.02 17.32 627.51 18.47 618.24C20.38 602.58 34.28 591.04 59.84 583.8C60.22 586.87 60.87 589.85 61.79 592.71C44.64 597.65 29.15 605.84 27.5 619.35C26.68 626.09 28.58 632.05 33.29 637.59C44.18 650.37 70.2 661.05 110.63 669.36C160.33 679.6 233.34 686.46 327.66 689.75Z" fill="#4E0D5E" fill-opacity="1.000000" fill-rule="nonzero"/>
		<path id="Vector" d="M418.46 743.2L357.95 743.2C332.18 743.2 311.28 722.29 311.28 696.48C311.28 670.68 332.16 649.76 357.95 649.76L418.46 649.76C418.46 688.6 418.46 704.24 418.46 743.2Z" fill="#84299A" fill-opacity="1.000000" fill-rule="nonzero"/>
		<path id="Vector" d="M549.73 142.19C549.73 135.19 555.42 129.52 562.39 129.52C569.35 129.52 575.04 135.21 575.04 142.19C575.04 149.18 569.35 154.85 562.39 154.85C555.42 154.85 549.73 149.16 549.73 142.19ZM553.7 142.19C553.7 146.98 557.6 150.89 562.39 150.89C567.17 150.89 571.08 146.98 571.08 142.19C571.08 137.39 567.17 133.49 562.39 133.49C557.6 133.49 553.7 137.39 553.7 142.19Z" fill="#84299A" fill-opacity="1.000000" fill-rule="nonzero"/>
		<path id="Vector" d="M507.43 87.92C507.43 80.92 513.11 75.25 520.08 75.25C527.05 75.25 532.73 80.94 532.73 87.92C532.73 94.91 527.05 100.58 520.08 100.58C513.11 100.58 507.43 94.91 507.43 87.92ZM511.41 87.92C511.41 92.71 515.31 96.62 520.1 96.62C524.88 96.62 528.79 92.71 528.79 87.92C528.79 83.12 524.88 79.22 520.1 79.22C515.29 79.23 511.41 83.12 511.41 87.92Z" fill="#84299A" fill-opacity="1.000000" fill-rule="nonzero"/>
		<path id="Vector" d="M511.41 148.55C512.5 148.55 513.4 147.67 513.4 146.55L513.4 137.8C513.4 136.71 512.52 135.8 511.41 135.8C510.31 135.8 509.42 136.69 509.42 137.8L509.42 146.55C509.42 147.67 510.3 148.55 511.41 148.55Z" fill="#EDEFF7" fill-opacity="1.000000" fill-rule="nonzero"/>
		<path id="Vector" d="M511.41 163.88C512.5 163.88 513.4 163 513.4 161.89L513.4 153.13C513.4 152.03 512.52 151.13 511.41 151.13C510.31 151.13 509.42 152.02 509.42 153.13L509.42 161.89C509.42 163 510.3 163.88 511.41 163.88Z" fill="#EDEFF7" fill-opacity="1.000000" fill-rule="nonzero"/>
		<path id="Vector" d="M499.12 151.84L506.98 151.84C508.08 151.84 508.98 150.96 508.98 149.85C508.98 148.76 508.1 147.86 506.98 147.86L499.12 147.86C498.02 147.86 497.13 148.74 497.13 149.85C497.13 150.94 498.01 151.84 499.12 151.84Z" fill="#EDEFF7" fill-opacity="1.000000" fill-rule="nonzero"/>
		<path id="Vector" d="M515.83 151.84L523.7 151.84C524.79 151.84 525.69 150.96 525.69 149.85C525.69 148.76 524.81 147.86 523.7 147.86L515.83 147.86C514.74 147.86 513.84 148.74 513.84 149.85C513.84 150.94 514.72 151.84 515.83 151.84Z" fill="#EDEFF7" fill-opacity="1.000000" fill-rule="nonzero"/>
		<path id="Vector" d="M564.84 90.18C565.93 90.18 566.83 89.3 566.83 88.18L566.83 79.43C566.83 78.33 565.95 77.43 564.84 77.43C563.75 77.43 562.85 78.31 562.85 79.43L562.85 88.18C562.85 89.28 563.73 90.18 564.84 90.18Z" fill="#EDEFF7" fill-opacity="1.000000" fill-rule="nonzero"/>
		<path id="Vector" d="M564.84 105.51C565.93 105.51 566.83 104.63 566.83 103.51L566.83 94.76C566.83 93.66 565.95 92.76 564.84 92.76C563.75 92.76 562.85 93.65 562.85 94.76L562.85 103.51C562.85 104.61 563.73 105.51 564.84 105.51Z" fill="#EDEFF7" fill-opacity="1.000000" fill-rule="nonzero"/>
		<path id="Vector" d="M552.55 93.45L560.42 93.45C561.51 93.45 562.41 92.57 562.41 91.46C562.41 90.37 561.53 89.47 560.42 89.47L552.55 89.47C551.46 89.47 550.56 90.35 550.56 91.46C550.56 92.57 551.44 93.45 552.55 93.45Z" fill="#EDEFF7" fill-opacity="1.000000" fill-rule="nonzero"/>
		<path id="Vector" d="M569.26 93.45L577.13 93.45C578.22 93.45 579.12 92.57 579.12 91.46C579.12 90.37 578.24 89.47 577.13 89.47L569.26 89.47C568.17 89.47 567.27 90.35 567.27 91.46C567.27 92.57 568.15 93.45 569.26 93.45Z" fill="#EDEFF7" fill-opacity="1.000000" fill-rule="nonzero"/>
		<path id="Vector" d="M183.93 55.4C183.93 48.4 189.62 42.73 196.59 42.73C203.55 42.73 209.24 48.42 209.24 55.4C209.24 62.37 203.55 68.06 196.59 68.06C189.6 68.06 183.93 62.37 183.93 55.4ZM187.89 55.4C187.89 60.19 191.8 64.1 196.59 64.1C201.37 64.1 205.28 60.19 205.28 55.4C205.28 50.6 201.37 46.7 196.59 46.7C191.78 46.7 187.89 50.6 187.89 55.4Z" fill="#84299A" fill-opacity="1.000000" fill-rule="nonzero"/>
		<path id="Vector" d="M135.25 79.23C135.25 72.24 140.93 66.57 147.9 66.57C154.87 66.57 160.56 72.26 160.56 79.23C160.56 86.21 154.87 91.9 147.9 91.9C140.93 91.9 135.25 86.21 135.25 79.23ZM139.23 79.23C139.23 84.03 143.14 87.93 147.92 87.93C152.71 87.93 156.61 84.04 156.61 79.23C156.61 74.44 152.71 70.53 147.92 70.53C143.12 70.53 139.23 74.42 139.23 79.23Z" fill="#EDEFF7" fill-opacity="1.000000" fill-rule="nonzero"/>
		<path id="Vector" d="M127.97 113.33C129.06 113.33 129.96 112.44 129.96 111.33L129.96 102.58C129.96 101.48 129.08 100.58 127.97 100.58C126.88 100.58 125.98 101.46 125.98 102.58L125.98 111.33C125.98 112.44 126.88 113.33 127.97 113.33Z" fill="#84299A" fill-opacity="1.000000" fill-rule="nonzero"/>
		<path id="Vector" d="M127.97 128.66C129.06 128.66 129.96 127.78 129.96 126.66L129.96 117.91C129.96 116.81 129.08 115.91 127.97 115.91C126.88 115.91 125.98 116.79 125.98 117.91L125.98 126.66C125.98 127.78 126.88 128.66 127.97 128.66Z" fill="#84299A" fill-opacity="1.000000" fill-rule="nonzero"/>
		<path id="Vector" d="M115.68 116.6L123.55 116.6C124.64 116.6 125.54 115.72 125.54 114.61C125.54 113.52 124.66 112.62 123.55 112.62L115.68 112.62C114.59 112.62 113.69 113.5 113.69 114.61C113.69 115.72 114.59 116.6 115.68 116.6Z" fill="#84299A" fill-opacity="1.000000" fill-rule="nonzero"/>
		<path id="Vector" d="M132.39 116.6L140.26 116.6C141.35 116.6 142.25 115.72 142.25 114.61C142.25 113.52 141.37 112.62 140.26 112.62L132.39 112.62C131.3 112.62 130.4 113.5 130.4 114.61C130.4 115.72 131.3 116.6 132.39 116.6Z" fill="#84299A" fill-opacity="1.000000" fill-rule="nonzero"/>
		<path id="Vector" d="M163.56 31.37C164.65 31.37 165.55 30.48 165.55 29.37L165.55 20.61C165.55 19.52 164.67 18.62 163.56 18.62C162.47 18.62 161.57 19.5 161.57 20.61L161.57 29.37C161.57 30.46 162.47 31.37 163.56 31.37Z" fill="#EDEFF7" fill-opacity="1.000000" fill-rule="nonzero"/>
		<path id="Vector" d="M163.56 46.7C164.65 46.7 165.55 45.81 165.55 44.7L165.55 35.95C165.55 34.85 164.67 33.95 163.56 33.95C162.47 33.95 161.57 34.83 161.57 35.95L161.57 44.7C161.57 45.81 162.47 46.7 163.56 46.7Z" fill="#EDEFF7" fill-opacity="1.000000" fill-rule="nonzero"/>
		<path id="Vector" d="M151.27 34.64L159.14 34.64C160.23 34.64 161.13 33.76 161.13 32.65C161.13 31.56 160.25 30.66 159.14 30.66L151.27 30.66C150.18 30.66 149.28 31.54 149.28 32.65C149.28 33.76 150.18 34.64 151.27 34.64Z" fill="#EDEFF7" fill-opacity="1.000000" fill-rule="nonzero"/>
		<path id="Vector" d="M167.98 34.64L175.85 34.64C176.94 34.64 177.84 33.76 177.84 32.65C177.84 31.56 176.96 30.66 175.85 30.66L167.98 30.66C166.89 30.66 165.99 31.54 165.99 32.65C165.99 33.76 166.89 34.64 167.98 34.64Z" fill="#EDEFF7" fill-opacity="1.000000" fill-rule="nonzero"/>
	</g>
</svg>
