<svg width="32" height="32" viewBox="0 0 32 32" fill="none" xmlns="http://www.w3.org/2000/svg">
<path d="M24 26.667C24 24.5453 23.1572 22.5104 21.6569 21.0101C20.1566 19.5098 18.1218 18.667 16 18.667M16 18.667C13.8783 18.667 11.8435 19.5098 10.3432 21.0101C8.84288 22.5104 8.00002 24.5453 8.00002 26.667M16 18.667C18.9455 18.667 21.3334 16.2792 21.3334 13.3337C21.3334 10.3881 18.9455 8.00033 16 8.00033C13.0545 8.00033 10.6667 10.3881 10.6667 13.3337C10.6667 16.2792 13.0545 18.667 16 18.667ZM29.3334 16.0003C29.3334 23.3641 23.3638 29.3337 16 29.3337C8.63622 29.3337 2.66669 23.3641 2.66669 16.0003C2.66669 8.63653 8.63622 2.66699 16 2.66699C23.3638 2.66699 29.3334 8.63653 29.3334 16.0003Z" stroke="#777777" stroke-width="2.66667" stroke-linecap="round" stroke-linejoin="round"/>
</svg>
