<svg width="24.000000" height="24.000000" viewBox="0 0 24 24" fill="none" xmlns="http://www.w3.org/2000/svg" xmlns:xlink="http://www.w3.org/1999/xlink">
	<desc>
			Created with Pixso.
	</desc>
	<defs>
		<clipPath id="clip282_19446">
			<rect id="case-transcript-svgrepo-com 1" width="24.000000" height="24.000000" fill="white" fill-opacity="0"/>
		</clipPath>
	</defs>
	<rect id="case-transcript-svgrepo-com 1" width="24.000000" height="24.000000" fill="#FFFFFF" fill-opacity="0"/>
	<g clip-path="url(#clip282_19446)">
		<path id="Vector" d="M8 5.3335L9.3335 5.3335C9.5332 5.3335 9.6665 5.2002 9.6665 5.00024L9.6665 4.00024L14.3335 4.00024L14.3335 5.00024C14.3335 5.2002 14.4668 5.3335 14.667 5.3335L16.0005 5.3335C16.2007 5.3335 16.334 5.2002 16.334 5.00024L16.334 4.00024C16.334 2.90015 15.4336 2 14.3335 2L9.6665 2C8.56641 2 7.6665 2.90015 7.6665 4.00024L7.6665 5.00024C7.6665 5.2002 7.7998 5.3335 8 5.3335Z" fill="#FFFFFF" fill-opacity="1.000000" fill-rule="evenodd"/>
		<path id="Vector" d="M20.0015 7.33496L4 7.33496C2.8999 7.33496 2 8.23511 2 9.33521L2 20.0027C2 21.1028 2.8999 22.0027 4 22.0027L20.0015 22.0027C21.1016 22.0027 22.0015 21.1028 22.0015 20.0027L22.0015 9.33521C22.0015 8.23511 21.1016 7.33496 20.0015 7.33496ZM15.668 17.6692C15.668 18.2358 15.2344 18.6692 14.6675 18.6692L10.0005 18.6692C9.43408 18.6692 9.00049 18.2358 9.00049 17.6692L9.00049 11.3352C9.00049 10.7686 9.43408 10.3352 10.0005 10.3352L12.334 10.3352C12.5342 10.3352 12.6675 10.4685 12.6675 10.6685L12.6675 12.6687C12.6675 13.0354 12.9673 13.3354 13.334 13.3354L15.3345 13.3354C15.5342 13.3354 15.668 13.4688 15.668 13.6687L15.668 17.6692ZM15.668 12.4353C15.668 12.5686 15.5679 12.6687 15.4346 12.6687L14.001 12.6687C13.6343 12.6687 13.334 12.3687 13.334 12.002L13.334 10.5686C13.334 10.4353 13.4341 10.3352 13.5674 10.3352C13.6343 10.3352 13.7007 10.3687 13.7344 10.4019L15.6011 12.2688C15.6343 12.302 15.668 12.3687 15.668 12.4353Z" fill="#FFFFFF" fill-opacity="1.000000" fill-rule="nonzero"/>
	</g>
</svg>
