<svg width="24.000000" height="24.000000" viewBox="0 0 24 24" fill="none" xmlns="http://www.w3.org/2000/svg" xmlns:xlink="http://www.w3.org/1999/xlink">
	<desc>
			Created with Pixso.
	</desc>
	<defs>
		<clipPath id="clip282_19464">
			<rect id="email-mail-svgrepo-com 1" width="24.000000" height="24.000000" fill="white" fill-opacity="0"/>
		</clipPath>
	</defs>
	<g clip-path="url(#clip282_19464)">
		<path id="Vector" d="M2.08838 8.82031C1.95459 9.33618 2.01172 18.709 2.01514 18.7593L8.14209 12.9319L2.08838 8.82031Z" fill="#FFFFFF" fill-opacity="1.000000" fill-rule="nonzero"/>
		<path id="Vector" d="M11.9995 15.0364C11.064 15.0364 10.6245 14.6208 9.3999 13.7891L2.63184 20.2263C3.05713 20.7009 3.66309 20.9988 4.33545 20.9988L19.6641 20.9988C20.3359 20.9988 20.9424 20.7009 21.3677 20.2263L14.5996 13.7891C13.375 14.6208 12.9355 15.0364 11.9995 15.0364Z" fill="#FFFFFF" fill-opacity="1.000000" fill-rule="nonzero"/>
		<path id="Vector" d="M21.9102 8.82031L15.8564 12.9319L21.9834 18.7593C21.9868 18.7085 22.0483 9.35254 21.9102 8.82031Z" fill="#FFFFFF" fill-opacity="1.000000" fill-rule="nonzero"/>
		<path id="Vector" d="M13.2388 12.9207C13.2617 12.9048 21.106 7.56104 21.106 7.56104C20.3706 6.9541 19.7056 7.03638 18.8857 7.03638L18.1577 7.03638L18.1577 3.75537C18.1577 3.33813 17.832 3 17.4302 3L6.56348 3C6.16162 3 5.83545 3.33813 5.83545 3.75537L5.83545 7.03638L5.10791 7.03638C4.29639 7.03638 3.62842 6.94922 2.88721 7.56104C2.88721 7.56104 10.7319 12.905 10.7549 12.9207C11.9072 13.7031 11.9854 13.772 13.2388 12.9207ZM9.74951 4.67578L14.2437 4.67578C14.646 4.67578 14.9717 5.01392 14.9717 5.43091C14.9717 5.84814 14.646 6.18628 14.2437 6.18628L9.74951 6.18628C9.34766 6.18628 9.02197 5.84814 9.02197 5.43091C9.02197 5.01392 9.34766 4.67578 9.74951 4.67578ZM8.05127 8.10107C8.05127 7.68408 8.37744 7.3457 8.7793 7.3457L15.2144 7.3457C15.6162 7.3457 15.9419 7.68408 15.9419 8.10107C15.9419 8.51807 15.6162 8.85645 15.2144 8.85645L8.7793 8.85645C8.37744 8.85645 8.05127 8.51807 8.05127 8.10107Z" fill="#FFFFFF" fill-opacity="1.000000" fill-rule="nonzero"/>
	</g>
</svg>
