<svg width="24" height="24" viewBox="0 0 24 24" fill="none" xmlns="http://www.w3.org/2000/svg">
<g clip-path="url(#clip0_857_6213)">
<path fill-rule="evenodd" clip-rule="evenodd" d="M24 21.7143V24H18.3962V21.7143H24ZM17.2755 21.7143V24H15.034V21.7143H17.2755ZM24 18.2857V20.5714H18.3962V18.2857H24ZM17.2755 18.2857V20.5714H15.034V18.2857H17.2755ZM6.9168 13.9916C8.13369 15.2325 9.81482 16 11.6717 16C12.4577 16 13.2122 15.8625 13.9133 15.6098L13.9133 17.9977C13.1969 18.1857 12.4458 18.2857 11.6717 18.2857C9.19582 18.2857 6.9543 17.2623 5.33176 15.6078L6.9168 13.9916ZM24 14.8571V17.1429H18.3962V14.8571H24ZM17.2755 14.8571V17.1429H15.034V14.8571H17.2755ZM11.6717 0C16.6235 0 20.6377 4.0934 20.6377 9.14286C20.6377 10.8082 20.2011 12.3695 19.4382 13.7143L16.6838 13.7144C17.7487 12.5013 18.3962 10.8992 18.3962 9.14286C18.3962 5.35576 15.3856 2.28571 11.6717 2.28571C7.9579 2.28571 4.94723 5.35576 4.94723 9.14286C4.94723 9.35852 4.957 9.57185 4.9761 9.78242L6.06799 8.66947L7.65297 10.2857L3.82648 14.1877L0 10.2857L1.58498 8.66947L2.73126 9.83795C2.71434 9.60851 2.70573 9.37671 2.70573 9.14286C2.70573 4.0934 6.71995 0 11.6717 0ZM12.7925 3.42857V8.52571L15.6504 10.48L14.4176 12.3771L10.551 9.76V3.42857H12.7925Z" fill="white"/>
</g>
<defs>
<clipPath id="clip0_857_6213">
<rect width="24" height="24" fill="white"/>
</clipPath>
</defs>
</svg>
