<svg width="24" height="24" viewBox="0 0 24 24" fill="none" xmlns="http://www.w3.org/2000/svg">
<path fill-rule="evenodd" clip-rule="evenodd" d="M18 3.15104L10.0027 11L5 6.09009L6.02163 4.93905L10.0027 8.84628L16.9784 2L18 3.15104Z" fill="white"/>
<path d="M12 17C13.2896 17 14.6667 15.8817 14.6667 14.5C14.6667 13.1183 13.2896 12 12 12C10.7104 12 9.33333 13.1183 9.33333 14.5C9.33333 15.8817 10.7104 17 12 17ZM13.6 17.7143H13.4271C12.9938 17.9375 12.5125 18.0714 12 18.0714C11.4875 18.0714 11.0083 17.9375 10.5729 17.7143H10.4C9.075 17.7143 8 18.8661 8 20.2857V20.9286C8 21.5201 8.44792 22 9 22H15C15.5521 22 16 21.5201 16 20.9286V20.2857C16 18.8661 14.925 17.7143 13.6 17.7143Z" fill="white"/>
<path d="M20 17C20.9672 17 22 16.1054 22 15C22 13.8946 20.9672 13 20 13C19.0328 13 18 13.8946 18 15C18 16.1054 19.0328 17 20 17ZM21.2 17.5714H21.0703C20.7453 17.75 20.3844 17.8571 20 17.8571C19.6156 17.8571 19.2562 17.75 18.9297 17.5714H18.8C17.8062 17.5714 17 18.4929 17 19.6286V20.1429C17 20.6161 17.3359 21 17.75 21H22.25C22.6641 21 23 20.6161 23 20.1429V19.6286C23 18.4929 22.1937 17.5714 21.2 17.5714Z" fill="white"/>
<path d="M4 17C4.96719 17 6 16.1054 6 15C6 13.8946 4.96719 13 4 13C3.03281 13 2 13.8946 2 15C2 16.1054 3.03281 17 4 17ZM5.2 17.5714H5.07031C4.74531 17.75 4.38438 17.8571 4 17.8571C3.61562 17.8571 3.25625 17.75 2.92969 17.5714H2.8C1.80625 17.5714 1 18.4929 1 19.6286V20.1429C1 20.6161 1.33594 21 1.75 21H6.25C6.66406 21 7 20.6161 7 20.1429V19.6286C7 18.4929 6.19375 17.5714 5.2 17.5714Z" fill="white"/>
</svg>
