<svg width="24" height="24" viewBox="0 0 24 24" fill="none" xmlns="http://www.w3.org/2000/svg">
<g clip-path="url(#clip0_2405_4714)">
<path fill-rule="evenodd" clip-rule="evenodd" d="M4.00195 3C3.44967 3 3.00195 3.44772 3.00195 4V20C3.00195 20.5523 3.44967 21 4.00195 21H5.00195C5.55424 21 6.00195 20.5523 6.00195 20V4C6.00195 3.44772 5.55424 3 5.00195 3H4.00195ZM9.00188 3C8.4496 3 8.00188 3.44772 8.00188 4V20C8.00188 20.5523 8.4496 21 9.00188 21H10.0019C10.5542 21 11.0019 20.5523 11.0019 20V4C11.0019 3.44772 10.5542 3 10.0019 3H9.00188Z" fill="white"/>
<rect x="12.4805" y="3.92432" width="3" height="18" rx="1" transform="rotate(-19 12.4805 3.92432)" fill="white"/>
</g>
<defs>
<clipPath id="clip0_2405_4714">
<rect width="24" height="24" fill="white"/>
</clipPath>
</defs>
</svg>
