<svg width="24.000000" height="24.000000" viewBox="0 0 24 24" fill="none" xmlns="http://www.w3.org/2000/svg" xmlns:xlink="http://www.w3.org/1999/xlink">
	<desc>
			Created with Pixso.
	</desc>
	<defs>
		<clipPath id="clip282_19525">
			<rect id="icon / sidebar / inactive / 6. articles" width="17.000000" height="17.000000" transform="translate(3.000000 4.000000)" fill="white" fill-opacity="0"/>
		</clipPath>
		<clipPath id="clip282_19520">
			<rect id="160-mail-1" width="23.000000" height="23.000000" transform="translate(-1.000000 1.000000)" fill="white" fill-opacity="0"/>
		</clipPath>
		<clipPath id="clip282_19475">
			<rect id="icon / sidebar / inactive / 4. contacts" width="24.000000" height="24.000000" fill="white" fill-opacity="0"/>
		</clipPath>
	</defs>
	<g clip-path="url(#clip282_19475)">
		<rect id="bound" width="24.000000" height="24.000000" fill="#D8D8D8" fill-opacity="0"/>
		<rect id="bound" width="24.000000" height="24.000000" stroke="#979797" stroke-opacity="0" stroke-width="0.000000"/>
		<path id="Combined Shape" d="M4.00293 3L5.00293 3C5.55518 3 6.00293 3.44775 6.00293 4L6.00293 20C6.00293 20.5522 5.55518 21 5.00293 21L4.00293 21C3.45068 21 3.00293 20.5522 3.00293 20L3.00293 4C3.00293 3.44775 3.45068 3 4.00293 3ZM10.0029 3L9.00293 3C8.45068 3 8.00293 3.44775 8.00293 4L8.00293 20C8.00293 20.5522 8.45068 21 9.00293 21L10.0029 21C10.5552 21 11.0029 20.5522 11.0029 20L11.0029 4C11.0029 3.44775 10.5552 3 10.0029 3Z" clip-rule="evenodd" fill="#FFFFFF" fill-opacity="1.000000" fill-rule="evenodd"/>
		<rect id="Rectangle Copy 2" x="12.479980" y="3.924316" rx="1.000000" width="3.000000" height="18.000000" transform="rotate(-19 12.479980 3.924316)" fill="#FFFFFF" fill-opacity="1.000000"/>
	</g>
</svg>
