<svg width="24.000000" height="24.000000" viewBox="0 0 24 24" fill="none" xmlns="http://www.w3.org/2000/svg" xmlns:xlink="http://www.w3.org/1999/xlink">
	<desc>
			Created with Pixso.
	</desc>
	<defs>
		<clipPath id="clip311_1952">
			<rect id="license-svgrepo-com (1) 1" width="24.000000" height="24.000000" fill="white" fill-opacity="0"/>
		</clipPath>
	</defs>
	<rect id="license-svgrepo-com (1) 1" width="24.000000" height="24.000000" fill="#FFFFFF" fill-opacity="0"/>
	<g clip-path="url(#clip311_1952)">
		<path id="Vector" d="M19 3L9 3C7.11426 3 6.17139 3 5.58594 3.58582C5 4.17163 5 5.11438 5 7L5 10.5L5 17" stroke="#FFFFFF" stroke-opacity="1.000000" stroke-width="2.000000" stroke-linejoin="round" stroke-linecap="round"/>
		<path id="Vector" d="M9 7L14 7" stroke="#FFFFFF" stroke-opacity="1.000000" stroke-width="2.000000" stroke-linejoin="round" stroke-linecap="round"/>
		<path id="Vector" d="M9 11L14 11" stroke="#FFFFFF" stroke-opacity="1.000000" stroke-width="2.000000" stroke-linejoin="round" stroke-linecap="round"/>
		<path id="Union" d="M16 22L5 22Q4.67334 22 4.36133 21.9323Q4.09131 21.8734 3.83203 21.7638Q3.57373 21.6547 3.34424 21.5024L3.34375 21.5024L3.34375 21.5024Q3.09473 21.3372 2.87891 21.1213Q2.6626 20.9055 2.49756 20.656Q2.34521 20.4263 2.23633 20.1681Q2.12646 19.9089 2.06787 19.6387Q2 19.3267 2 19Q2 18.6733 2.06787 18.3613L2.06787 18.3613Q2.12646 18.0911 2.23633 17.8319Q2.34521 17.5737 2.49756 17.344Q2.6626 17.0946 2.87891 16.8787Q3.09473 16.6628 3.34424 16.4976L3.34424 16.4976Q3.57373 16.3453 3.83203 16.2362Q4.09131 16.1266 4.36133 16.0677L4.36133 16.0677Q4.67334 16 5 16L14 16C14.5601 16 15 16.4399 15 17C15 17.5601 14.5601 18 14 18L14 20L16 20C16.5601 20 17 20.4399 17 21C17 21.5601 16.5601 22 16 22ZM4 19.0007L4 18.9993L4 19L4 19.0007Z" clip-rule="evenodd" fill="#FFFFFF" fill-opacity="1.000000" fill-rule="evenodd"/>
		<path id="Union" d="M15 17L15 19Q15 19.124 15.0288 19.241Q15.0474 19.3164 15.0781 19.3889Q15.1113 19.4675 15.1567 19.5383Q15.2148 19.6292 15.293 19.7072Q15.3711 19.7852 15.4614 19.8433L15.4619 19.8433Q15.5327 19.8885 15.6108 19.9219Q15.6836 19.9525 15.7593 19.9712Q15.876 20 16 20Q16.124 20 16.2407 19.9712Q16.3164 19.9525 16.3892 19.9219Q16.4678 19.8885 16.5386 19.8431Q16.6289 19.785 16.707 19.7072Q16.7852 19.6292 16.8433 19.5383L16.8433 19.5383Q16.8887 19.4675 16.9219 19.3889Q16.9526 19.3164 16.9712 19.241Q17 19.124 17 19L17 4.5Q17 4.22974 17.0557 3.97144Q17.105 3.74438 17.1968 3.52661Q17.2881 3.31055 17.4155 3.11841L17.4155 3.11841Q17.5532 2.91138 17.7324 2.73218Q17.9116 2.5531 18.1182 2.41577L18.1182 2.41577Q18.3105 2.28821 18.5264 2.1969Q18.7446 2.10474 18.9717 2.05579L18.9717 2.05579Q19.2295 2 19.5 2Q19.7705 2 20.0283 2.05579L20.0283 2.05579Q20.2554 2.10474 20.4736 2.1969Q20.6895 2.28821 20.8818 2.41577L20.8818 2.41577Q21.0884 2.5531 21.2676 2.73218Q21.4468 2.91138 21.5845 3.11841L21.5845 3.11841Q21.7119 3.31055 21.8032 3.52661Q21.895 3.74438 21.9443 3.97144Q22 4.22974 22 4.5Q22 4.77026 21.9443 5.02856L21.9443 5.02856Q21.895 5.25562 21.8032 5.47339Q21.7119 5.68958 21.584 5.88171Q21.4468 6.08862 21.2676 6.26782Q21.0884 6.4469 20.8818 6.58423Q20.6895 6.71167 20.4736 6.8031Q20.2559 6.89526 20.0283 6.94421Q19.7705 7 19.5 7L19 7L19 19Q19 19.3268 18.9321 19.6387L18.9321 19.6388L18.9321 19.6388Q18.8735 19.9089 18.7637 20.1681Q18.6548 20.4263 18.5024 20.656Q18.3374 20.9055 18.1211 21.1213Q17.9053 21.3372 17.6562 21.5024L17.6558 21.5024Q17.4263 21.6547 17.168 21.7638Q16.9087 21.8734 16.6387 21.9321Q16.3267 22 16 22Q15.6733 22 15.3613 21.9321Q15.0913 21.8734 14.832 21.7638Q14.5737 21.6547 14.3438 21.5024L14.3438 21.5024Q14.0947 21.3372 13.8789 21.1213Q13.6626 20.9055 13.4976 20.6561L13.4976 20.656L13.4976 20.656Q13.3452 20.4263 13.2363 20.1681Q13.1265 19.9089 13.0679 19.6388L13.0679 19.6387Q13 19.3268 13 19L13 17C13 16.4399 13.4399 16 14 16C14.5601 16 15 16.4399 15 17Z" clip-rule="evenodd" fill="#FFFFFF" fill-opacity="1.000000" fill-rule="evenodd"/>
	</g>
</svg>
