<svg width="26.999023" height="35.803711" viewBox="0 0 26.999 35.8037" fill="none" xmlns="http://www.w3.org/2000/svg" xmlns:xlink="http://www.w3.org/1999/xlink">
	<desc>
			Created with Pixso.
	</desc>
	<defs/>
	<path id="Fill-1" d="M2.67627 0C2.21924 0.00427246 1.76318 0.116211 1.35303 0.335815C0.93457 0.559204 0.599609 0.876587 0.365723 1.25134C0.132324 1.6261 0.00439453 2.05615 0.00439453 2.50464L0.000976562 11.5488C0.000976562 11.5488 0.515625 11.7289 1.34814 11.2826L8.09766 7.65942L8.09766 3.96313C8.0957 3.06812 7.58398 2.2428 6.75342 1.79431L4.0542 0.337891C3.64404 0.116821 3.18701 0.00427246 2.729 0L2.67627 0ZM12.1494 7.94202L8.09766 10.1172L1.34814 13.74C0.515625 14.1866 0.00195312 15.012 0 15.9049L0 27.4988C0 28.3939 0.513184 29.2209 1.34814 29.6694L12.1494 35.4674C12.9824 35.9159 14.0117 35.9159 14.8467 35.4674L25.6499 29.6694C26.4849 29.2209 26.999 28.3939 26.999 27.4988L26.999 27.4943C26.999 26.5999 26.4849 25.7721 25.6499 25.3236L22.9468 23.8739C22.1113 23.4254 21.0845 23.4254 20.2495 23.8739L14.8467 26.7738C14.0117 27.2222 12.9824 27.2201 12.1494 26.7738L9.44824 25.3236C8.61572 24.8752 8.1001 24.0479 8.1001 23.1531L8.1001 20.251C8.1001 19.356 8.61572 18.5264 9.45068 18.0798L12.1494 16.6318C12.9844 16.1833 14.0117 16.1833 14.8442 16.6318L20.2495 19.5281C21.0825 19.9741 22.1069 19.9741 22.9399 19.5299L25.646 18.084C26.4829 17.6373 26.999 16.8079 26.999 15.911C26.999 15.4625 26.8711 15.0325 26.6372 14.6577C26.4062 14.283 26.0664 13.9635 25.6499 13.74L14.8467 7.94202C14.4292 7.71802 13.9634 7.60596 13.4976 7.60596C13.0317 7.60596 12.5659 7.71802 12.1494 7.94202Z" fill="#FFFFFF" fill-opacity="1.000000" fill-rule="evenodd"/>
</svg>
