<svg width="34.000000" height="36.000000" viewBox="0 0 34 36" fill="none" xmlns="http://www.w3.org/2000/svg" xmlns:xlink="http://www.w3.org/1999/xlink">
	<desc>
			Created with Pixso.
	</desc>
	<defs>
		<clipPath id="clip281_17372">
			<rect id="logo-footer (1) 1" width="34.000000" height="36.000000" fill="white" fill-opacity="0"/>
		</clipPath>
	</defs>
	<rect id="logo-footer (1) 1" width="34.000000" height="36.000000" fill="#FFFFFF" fill-opacity="0"/>
	<g clip-path="url(#clip281_17372)">
		<path id="Fill-1" d="M29.7368 0.338867L27.0498 1.79443C26.2231 2.24316 25.7163 3.06799 25.7129 3.96204L25.7129 10.1167L21.6821 7.94275C20.8521 7.49414 19.8281 7.49414 18.9951 7.94275L8.24268 13.74C7.82959 13.9626 7.49023 14.2826 7.26172 14.6591C7.02686 15.0322 6.90234 15.4622 6.90234 15.9103C6.90234 16.0674 6.91895 16.2242 6.94922 16.3749C7.05713 16.9208 7.35596 17.4161 7.80273 17.7864C7.8125 17.7957 7.82617 17.8083 7.83936 17.8179C7.96387 17.9148 8.10156 18.006 8.24609 18.0846L8.62939 18.2883L10.4194 19.2516L10.9399 19.5305C11.249 19.6967 11.585 19.8002 11.9243 19.8411C12.4746 19.91 13.0425 19.8191 13.5435 19.5652C13.5703 19.5525 13.5938 19.5402 13.6172 19.5275L13.6377 19.5182L14.6616 18.9659L15.0986 18.7306L15.1118 18.7246L16.627 17.9088L18.998 16.632C19.8281 16.1832 20.8491 16.1832 21.6821 16.632L24.3657 18.0813C25.1987 18.5269 25.7129 19.358 25.7129 20.2522L25.7129 23.1534C25.7129 24.0479 25.1987 24.876 24.3691 25.3243L21.6821 26.7737C20.8521 27.222 19.8281 27.222 18.9951 26.7737L16.627 25.4968L15.2964 24.7819L15.1118 24.6813L14.4536 24.3268L13.647 23.8907L13.6172 23.8754C13.5938 23.8628 13.5703 23.8501 13.5435 23.8375C13.0425 23.5835 12.4746 23.4923 11.9243 23.5615C11.5815 23.6024 11.2422 23.7057 10.9331 23.8754L10.4023 24.1606L10.2744 24.2296L8.91064 24.9669L8.54834 25.1613L8.24268 25.3243C8.08154 25.4122 7.93359 25.5128 7.7959 25.6254C7.35596 25.9957 7.05713 26.4948 6.94922 27.037C6.91895 27.1875 6.90234 27.3416 6.90234 27.495L6.90234 27.4983C6.90234 27.5549 6.90576 27.6112 6.90918 27.6644C6.96631 28.4989 7.46338 29.2518 8.24268 29.6722L18.9951 35.4691C19.4067 35.6907 19.8647 35.8031 20.3232 35.8055L20.356 35.8055C20.8145 35.8031 21.272 35.6907 21.6821 35.4691L32.4307 29.6722C33.2607 29.2233 33.7744 28.3954 33.7744 27.4983L33.7744 15.9043C33.7744 15.8979 33.7715 15.8916 33.7715 15.8856L33.7676 2.50342C33.7676 2.05481 33.6401 1.625 33.4082 1.25183C33.1763 0.875366 32.8438 0.558472 32.4272 0.335815C32.0117 0.112061 31.5483 0 31.0845 0C30.6191 0 30.1538 0.112915 29.7368 0.338867Z" fill="#FFFFFF" fill-opacity="1.000000" fill-rule="evenodd"/>
		<path id="Fill-4" d="M0.555664 15.2147C0.370605 15.1146 0.140625 15.241 0.140625 15.4426L0.140625 16.8423L0.140625 27.76C0.140625 27.9617 0.370605 28.0881 0.555664 27.9879L2.18457 27.1038C2.27051 27.0571 2.32373 26.9702 2.32373 26.8761L2.32373 18.4778C2.32373 18.2761 2.55371 18.1497 2.73877 18.2499L4.15771 19.0183C4.24365 19.0653 4.29736 19.1522 4.29736 19.2463L4.29736 25.5039C4.29736 25.7058 4.52783 25.8319 4.7124 25.7318L6.34131 24.8477C6.42725 24.801 6.48096 24.7141 6.48096 24.62L6.48096 20.7295C6.48096 20.5277 6.71094 20.4014 6.89551 20.5016L8.31445 21.2704C8.40088 21.3173 8.45459 21.4042 8.45459 21.4983L8.45459 23.2478C8.45459 23.4495 8.68457 23.5758 8.86963 23.4753L10.498 22.5916C10.5845 22.5447 10.6377 22.458 10.6377 22.3639L10.6377 20.8387C10.6377 20.7446 10.5845 20.6577 10.498 20.6111L0.555664 15.2147Z" fill="#FFFFFF" fill-opacity="1.000000" fill-rule="evenodd"/>
	</g>
</svg>
