<svg width="24.000000" height="24.000000" viewBox="0 0 24 24" fill="none" xmlns="http://www.w3.org/2000/svg" xmlns:xlink="http://www.w3.org/1999/xlink">
	<desc>
			Created with Pixso.
	</desc>
	<defs>
		<clipPath id="clip282_19438">
			<rect id="marketing-circular-chart-svgrepo-com 1" width="24.000000" height="24.000000" fill="white" fill-opacity="0"/>
		</clipPath>
	</defs>
	<rect id="marketing-circular-chart-svgrepo-com 1" width="24.000000" height="24.000000" fill="#FFFFFF" fill-opacity="0"/>
	<g clip-path="url(#clip282_19438)">
		<path id="Vector" d="M13.1763 6.34204C14.2944 6.56824 15.312 7.12122 16.1191 7.94116C16.9263 8.76111 17.4624 9.78748 17.6709 10.9092C17.7061 11.0984 17.8706 11.2355 18.063 11.2355L23.6011 11.2355C23.7134 11.2355 23.8208 11.188 23.8965 11.1047C23.9722 11.0214 24.0088 10.9099 23.998 10.7979C23.7334 8.06848 22.5112 5.47974 20.5566 3.50867C18.6021 1.53772 16.0239 0.294067 13.2974 0.00671387C13.1851 -0.00537109 13.0728 0.03125 12.9888 0.106934C12.9043 0.182617 12.8564 0.290405 12.8564 0.403564L12.8564 5.95093C12.8564 6.14075 12.9902 6.30444 13.1763 6.34204Z" fill="#FFFFFF" fill-opacity="1.000000" fill-rule="nonzero"/>
		<path id="Vector" d="M23.5806 12.8934L18.0244 12.8934C17.8369 12.8934 17.6748 13.0239 17.6343 13.207C17.0537 15.8577 14.748 17.709 12.0273 17.709C10.9185 17.709 9.84277 17.3925 8.9165 16.7937C8.75879 16.6915 8.55078 16.7135 8.41748 16.8467L4.49072 20.7733C4.41064 20.8536 4.36816 20.9642 4.37451 21.0778C4.38086 21.1912 4.43555 21.2965 4.52393 21.3673C6.64551 23.0621 9.31055 23.9956 12.0273 23.9956C14.9663 23.9956 17.8076 22.9028 20.0273 20.9188C22.2432 18.9386 23.646 16.2462 23.9771 13.3376C23.9902 13.2247 23.9541 13.1116 23.8784 13.0269C23.8027 12.9419 23.6943 12.8934 23.5806 12.8934ZM19.019 19.5425C17.1108 21.3054 14.6274 22.2764 12.0273 22.2764C10.7852 22.2764 9.57129 22.058 8.41943 21.6274C7.86816 21.4211 7.33252 21.1665 6.82568 20.8696L8.93604 18.7598C9.90723 19.2034 10.9473 19.4282 12.0273 19.4282C15.1235 19.4282 17.9199 17.4958 19.0068 14.6127L21.9932 14.6127C21.4932 16.5029 20.4663 18.2054 19.019 19.5425Z" fill="#FFFFFF" fill-opacity="1.000000" fill-rule="nonzero"/>
		<path id="Vector" d="M7.27393 15.1875C6.62793 14.2373 6.28662 13.1241 6.28662 11.968C6.28662 10.5931 6.78027 9.26318 7.67627 8.2229C8.50439 7.26184 9.64209 6.59387 10.8794 6.34216C11.0649 6.30444 11.1987 6.14087 11.1987 5.95105L11.1987 0.403564C11.1987 0.290405 11.1509 0.182617 11.0664 0.106934C10.9824 0.0313721 10.8701 -0.00537109 10.7578 0.0065918C7.82227 0.315674 5.10498 1.70752 3.10596 3.92566C1.10303 6.14807 0 9.00427 0 11.968C0 14.7374 0.964844 17.4417 2.7168 19.5825C2.78809 19.6697 2.89307 19.7227 3.00586 19.7283C3.0127 19.7286 3.01904 19.7288 3.02588 19.7288C3.13135 19.7288 3.23291 19.6869 3.30811 19.6119L7.22607 15.6941C7.36133 15.5586 7.38135 15.3459 7.27393 15.1875ZM4.47998 4.9469C4.7373 4.67041 5.01465 4.40356 5.30518 4.15344L9.47949 4.15344L9.47949 4.95166C9.28418 5.02197 9.0835 5.10437 8.88184 5.19727L4.25488 5.19727C4.32959 5.11096 4.40527 5.02722 4.47998 4.9469ZM9.47949 1.97668L9.47949 2.74121L7.42578 2.74121C8.08252 2.41309 8.771 2.15662 9.47949 1.97668ZM2.66309 7.65332C2.82764 7.297 3.01465 6.94666 3.22021 6.6095L6.82129 6.6095C6.49219 6.92896 6.19287 7.27917 5.92871 7.65332L2.66309 7.65332ZM1.88721 10.1094C1.95117 9.75879 2.03418 9.40845 2.13477 9.06555L5.14746 9.06555C5.00537 9.40515 4.88818 9.75537 4.79834 10.1094L1.88721 10.1094ZM4.84033 13.9777C4.93945 14.3331 5.06641 14.6833 5.21875 15.0215L2.18213 15.0215C2.07715 14.6819 1.98877 14.3315 1.91846 13.9777L4.84033 13.9777ZM4.59131 12.5654L1.7373 12.5654C1.7251 12.3627 1.71924 12.1622 1.71924 11.968C1.71924 11.8236 1.72266 11.674 1.729 11.5216L4.58105 11.5216C4.57178 11.676 4.56738 11.8229 4.56738 11.968C4.56738 12.1642 4.5752 12.3646 4.59131 12.5654ZM4.05469 16.4337L3.19873 17.2899C3.03467 17.0173 2.87988 16.7303 2.73779 16.4337L4.05469 16.4337Z" fill="#FFFFFF" fill-opacity="1.000000" fill-rule="nonzero"/>
	</g>
</svg>
