<svg width="24.000000" height="24.000000" viewBox="0 0 24 24" fill="none" xmlns="http://www.w3.org/2000/svg" xmlns:xlink="http://www.w3.org/1999/xlink">
	<desc>
			Created with Pixso.
	</desc>
	<defs>
		<clipPath id="clip282_19363">
			<rect id="affiliate-affiliation-affilitate-svgrepo-com 1" width="24.000000" height="24.000000" fill="white" fill-opacity="0"/>
		</clipPath>
	</defs>
	<rect id="affiliate-affiliation-affilitate-svgrepo-com 1" width="24.000000" height="24.000000" fill="#FFFFFF" fill-opacity="0"/>
	<g clip-path="url(#clip282_19363)">
		<path id="Vector" d="M2.83496 10.1992L2.83496 12.1129C2.83496 13.0426 3.52295 13.7992 4.36865 13.7992L5.58496 13.7992L5.58496 12.8073L4.36865 12.8073C4.02051 12.8073 3.7373 12.4958 3.7373 12.1129L3.7373 10.1992L2.83496 10.1992Z" fill="#FFFFFF" fill-opacity="1.000000" fill-rule="nonzero"/>
		<path id="Vector" d="M21.1675 12.1129L21.1675 10.1992L20.2544 10.1992L20.2544 12.1129C20.2544 12.4958 19.9678 12.8073 19.6152 12.8073L18.4175 12.8073L18.4175 13.7992L19.6152 13.7992C20.4712 13.7992 21.1675 13.0426 21.1675 12.1129Z" fill="#FFFFFF" fill-opacity="1.000000" fill-rule="nonzero"/>
		<path id="Subtract" d="M17.4995 15.4573L17.4995 12.213C17.4995 11.5984 16.9604 11.1003 16.2949 11.1003L12.501 11.1003L12.501 8.17529C13.207 7.97668 13.7212 7.37048 13.7212 6.65332C13.7212 5.77466 12.9502 5.0625 11.999 5.0625C11.0483 5.0625 10.2773 5.77466 10.2773 6.65332C10.2773 7.37061 10.791 7.97681 11.4976 8.17529L11.4976 11.1003L7.70361 11.1003C7.03809 11.1003 6.49902 11.5984 6.49902 12.213L6.49902 15.4573L6.49902 16.3844L6.49902 19.8893C6.49902 20.5038 7.03809 21.002 7.70361 21.002L9.22168 21.002C8.729 20.9872 8.33398 20.6044 8.33398 20.1345L8.33398 19.6138C8.33398 18.4639 9.31982 17.5309 10.5342 17.5309L10.6929 17.5309C11.0918 17.7117 11.5312 17.8202 12.001 17.8202C12.4707 17.8202 12.9121 17.7117 13.3091 17.5309L13.4678 17.5309C14.6821 17.5309 15.668 18.4639 15.668 19.6138L15.668 20.1345C15.668 20.6044 15.2729 20.9872 14.7803 21.002L16.2949 21.002C16.9604 21.002 17.4995 20.5038 17.4995 19.8893L17.4995 16.3844L17.4995 15.4573ZM14.1401 14.9274C14.1401 16.0465 13.1831 16.9524 12.001 16.9524C10.8188 16.9524 9.86182 16.0465 9.86182 14.9274C9.86182 13.8082 10.8188 12.9023 12.001 12.9023C13.1831 12.9023 14.1401 13.8082 14.1401 14.9274Z" clip-rule="evenodd" fill="#FFFFFF" fill-opacity="1.000000" fill-rule="evenodd"/>
		<path id="Vector" d="M20.249 6.15002C21.1357 6.15002 21.8535 5.44543 21.8535 4.57495C21.8535 3.70459 21.1357 3 20.249 3C19.3623 3 18.645 3.70459 18.645 4.57495C18.645 5.44543 19.3623 6.15002 20.249 6.15002ZM21.3491 6.59998L21.2305 6.59998C20.9321 6.7406 20.6016 6.82495 20.249 6.82495C19.897 6.82495 19.5674 6.7406 19.2681 6.59998L19.1489 6.59998C18.2383 6.59998 17.499 7.32568 17.499 8.21997L17.499 8.625C17.499 8.99768 17.8071 9.30005 18.1865 9.30005L22.3115 9.30005C22.6914 9.30005 22.999 8.99768 22.999 8.625L22.999 8.21997C22.999 7.32568 22.2603 6.59998 21.3491 6.59998Z" fill="#FFFFFF" fill-opacity="1.000000" fill-rule="nonzero"/>
		<path id="Vector" d="M3.75 6.15002C4.63672 6.15002 5.35449 5.44543 5.35449 4.57495C5.35449 3.70459 4.63672 3 3.75 3C2.86328 3 2.146 3.70459 2.146 4.57495C2.146 5.44543 2.86328 6.15002 3.75 6.15002ZM4.8501 6.59998L4.73145 6.59998C4.43311 6.7406 4.10254 6.82495 3.75 6.82495C3.39795 6.82495 3.06836 6.7406 2.76904 6.59998L2.6499 6.59998C1.73926 6.59998 1 7.32568 1 8.21997L1 8.625C1 8.99768 1.30811 9.30005 1.6875 9.30005L5.8125 9.30005C6.19238 9.30005 6.5 8.99768 6.5 8.625L6.5 8.21997C6.5 7.32568 5.76123 6.59998 4.8501 6.59998Z" fill="#FFFFFF" fill-opacity="1.000000" fill-rule="nonzero"/>
	</g>
</svg>
