<svg width="24" height="24" viewBox="0 0 24 24" fill="none" xmlns="http://www.w3.org/2000/svg">
<path d="M17.8333 17.8333V16.1667C19.13 16.0818 20.3333 14.6496 20.3333 13.3772V6.16667C20.3333 4.72457 19.1794 3.66667 17.8827 3.66667H10.3343L9.5 2H17.7894C19.9775 2 22.0002 3.87627 22.0002 6.16667V13.3772C22.0002 16.1667 19.8594 17.6637 17.8333 17.8333Z" fill="white"/>
<path d="M8.62366 14.5C10.7742 14.5 12.4946 12.8333 12.4946 10.75C12.4946 8.66667 10.7742 7 8.62366 7C6.47312 7 4.75269 8.66667 4.75269 10.75C4.75269 12.8333 6.47312 14.5 8.62366 14.5ZM11.2903 15.5833H11.0323C10.3441 15.9167 9.48387 16.0833 8.62366 16.0833C7.76344 16.0833 6.98925 15.9167 6.21505 15.5833H5.95699C3.72043 15.5833 2 17.3333 2 19.4167V20.4167C2 21.3333 2.77419 22 3.63441 22H13.6989C14.6452 22 15.3333 21.25 15.3333 20.4167V19.4167C15.3333 17.3333 13.5269 15.5833 11.2903 15.5833Z" fill="white"/>
<path d="M18.6667 7.83333H14.5V9.49999H18.6667V7.83333Z" fill="white"/>
<path d="M18.6667 11.1667H14.5V12.8333H18.6667V11.1667Z" fill="white"/>
</svg>
