<?xml version="1.0" encoding="utf-8"?>
<!-- Generator: Adobe Illustrator 25.2.1, SVG Export Plug-In . SVG Version: 6.00 Build 0)  -->
<svg version="1.1" id="Слой_1" xmlns="http://www.w3.org/2000/svg" xmlns:xlink="http://www.w3.org/1999/xlink" x="0px" y="0px"
	 viewBox="0 0 24 24" style="enable-background:new 0 0 24 24;" xml:space="preserve">
<g>
	<path style="fill:#FFFFFF;stroke:#84299A;stroke-width:0.3127;stroke-miterlimit:10;" d="M9.9,2.5"/>
	<path style="fill:#FFFFFF;" d="M19.3,19l-0.2-1.9c1.6-0.1,2.8-1.5,2.8-3V5.6c0-1.7-1.4-3-3-3h-8.5c-0.2,0-0.3,0-0.5,0L9.6,0.7
		c0.2,0,0.5-0.1,0.7-0.1h8.5c2.7,0,4.9,2.2,4.9,4.9v8.5C23.8,16.7,21.8,18.8,19.3,19z"/>
	<path style="fill:#FFFFFF;" d="M9.1,14.6c2.5,0,4.5-2,4.5-4.5c0-2.5-2-4.5-4.5-4.5s-4.5,2-4.5,4.5C4.6,12.6,6.6,14.6,9.1,14.6z
		 M12.2,15.9h-0.3c-0.8,0.4-1.8,0.6-2.8,0.6s-1.9-0.2-2.8-0.6H6c-2.6,0-4.6,2.1-4.6,4.6v1.2c0,1.1,0.9,1.9,1.9,1.9H15
		c1.1,0,1.9-0.9,1.9-1.9v-1.2C16.9,18,14.8,15.9,12.2,15.9z"/>
	<rect x="15.3" y="6.8" style="fill:#FFFFFF;" width="4.4" height="1.9"/>
	<rect x="15.3" y="10.5" style="fill:#FFFFFF;" width="4.4" height="1.9"/>
</g>
</svg>
