<svg width="24.000000" height="24.000000" viewBox="0 0 24 24" fill="none" xmlns="http://www.w3.org/2000/svg" xmlns:xlink="http://www.w3.org/1999/xlink">
	<desc>
			Created with Pixso.
	</desc>
	<defs>
		<clipPath id="clip282_19372">
			<rect id="icon / sidebar / inactive / 4. contacts" width="24.000000" height="24.000000" fill="white" fill-opacity="0"/>
		</clipPath>
	</defs>
	<g clip-path="url(#clip282_19372)">
		<path id="Vector" d="M5 11C6.10303 11 7 10.1031 7 9C7 7.89685 6.10303 7 5 7C3.89697 7 3 7.89685 3 9C3 10.1031 3.89697 11 5 11ZM19 11C20.103 11 21 10.1031 21 9C21 7.89685 20.103 7 19 7C17.897 7 17 7.89685 17 9C17 10.1031 17.897 11 19 11ZM20 12L18 12C17.4502 12 16.9531 12.2219 16.5908 12.5813C17.8501 13.2719 18.7437 14.5188 18.9375 16L21 16C21.5532 16 22 15.5531 22 15L22 14C22 12.8969 21.103 12 20 12ZM7.40918 12.5813C7.04688 12.2219 6.5498 12 6 12L4 12C2.89697 12 2 12.8969 2 14L2 15C2 15.5531 2.44678 16 3 16L5.05957 16C5.25635 14.5188 6.1499 13.2719 7.40918 12.5813Z" fill="#FFFFFF" fill-opacity="1.000000" fill-rule="nonzero"/>
		<path id="Vector" d="M12 12C13.9346 12 15.5 10.4343 15.5 8.5C15.5 6.56567 13.9346 5 12 5C10.0654 5 8.5 6.56567 8.5 8.5C8.5 10.4343 10.0654 12 12 12ZM14.3999 13L14.1406 13C13.4907 13.3125 12.7686 13.5 12 13.5C11.2314 13.5 10.5127 13.3125 9.85938 13L9.6001 13C7.6123 13 6 14.6125 6 16.6L6 17.5C6 18.3281 6.67188 19 7.5 19L16.5 19C17.3281 19 18 18.3281 18 17.5L18 16.6C18 14.6125 16.3877 13 14.3999 13Z" fill="#FFFFFF" fill-opacity="1.000000" fill-rule="nonzero"/>
	</g>
</svg>
