<svg width="24.000000" height="24.000000" viewBox="0 0 24 24" fill="none" xmlns="http://www.w3.org/2000/svg" xmlns:xlink="http://www.w3.org/1999/xlink">
	<desc>
			Created with Pixso.
	</desc>
	<defs>
		<clipPath id="clip282_19455">
			<rect id="badges-business-and-finance-svgrepo-com" width="24.000000" height="24.000000" fill="white" fill-opacity="0"/>
		</clipPath>
	</defs>
	<rect id="badges-business-and-finance-svgrepo-com" width="24.000000" height="24.000000" fill="#FFFFFF" fill-opacity="0"/>
	<g clip-path="url(#clip282_19455)">
		<path id="Vector" d="M23.1182 17.9995L23.894 16.4465C24.0493 16.1367 24.0332 15.7686 23.8501 15.4736C23.6685 15.1787 23.3462 14.9998 23.0005 14.9998L20.0005 14.9998L20.0005 13.9998C20.0005 13.5999 19.7612 13.2598 19.4224 13.0999C19.9121 10.8118 20.0005 7.97583 20.0005 6.32983L20.0005 5C20.0005 4.64087 19.8076 4.30884 19.4966 4.13184L12.4966 0.13208C12.1895 -0.0439453 11.8105 -0.0439453 11.5034 0.13208L4.50391 4.13184C4.19287 4.30884 4.00049 4.64087 4.00049 4.99976L4.00049 6.32983C4.00049 7.97583 4.08789 10.8118 4.57764 13.0996C4.23877 13.2598 4.00049 13.5996 4.00049 13.9998L4.00049 14.9998L1.00098 14.9998C0.653809 14.9998 0.33252 15.1787 0.149902 15.4736C-0.0332031 15.7686 -0.0493164 16.1367 0.105957 16.4465L0.881836 17.9995L0.105957 19.5515C-0.0493164 19.8625 -0.0332031 20.2305 0.149902 20.5256C0.333008 20.8196 0.653809 20.9995 1.00098 20.9995L6.00049 20.9995C6.55273 20.9995 7.00049 20.5515 7.00049 19.9995L7.00049 18.9998L7.42676 18.9998C8.37744 20.6765 9.64941 22.2375 11.3345 23.7434C11.5244 23.9136 11.7627 23.9985 12.0015 23.9985C12.2397 23.9985 12.4785 23.9136 12.6675 23.7434C14.3525 22.2356 15.6235 20.6736 16.5732 18.9998L17.0005 18.9998L17.0005 19.9995C17.0005 20.5515 17.4473 20.9995 18.0005 20.9995L23.0005 20.9995C23.3462 20.9995 23.6685 20.8196 23.8501 20.5256C24.0332 20.2307 24.0493 19.8625 23.894 19.5515L23.1182 17.9995ZM2.61865 18.9995L2.89453 18.4465C3.03564 18.1646 3.03564 17.8337 2.89453 17.5518L2.61865 16.9998L4.00049 16.9998L4.00049 17.9995C4.00049 18.5515 4.44775 18.9995 5.00049 18.9995L2.61865 18.9995ZM12.0005 4C14.2065 4 16.0005 5.79395 16.0005 7.99976C16.0005 9.19287 15.4644 10.2537 14.6323 10.9868C15.2295 11.5068 15.6606 12.2026 15.8643 12.9998L13.7407 12.9998C13.3994 12.3977 12.7544 11.9998 12.0005 11.9998C11.2456 11.9998 10.6006 12.3977 10.2598 12.9998L8.13574 12.9998C8.33984 12.2026 8.77051 11.5068 9.36768 10.9868C8.53564 10.2539 8.00049 9.19287 8.00049 7.99976C8.00049 5.79395 9.79346 4 12.0005 4ZM18.0005 15.9998L18.0005 16.9995L16.0005 16.9995L8.00049 16.9995L6.00049 16.9995L6.00049 15.9998L6.00049 14.9998L9.00049 14.9998L15.0005 14.9998L18.0005 14.9998L18.0005 15.9998ZM21.1055 18.4465L21.3813 18.9995L19.0005 18.9995C19.5522 18.9995 20.0005 18.5515 20.0005 17.9995L20.0005 16.9998L21.3813 16.9998L21.1055 17.5518C20.9644 17.8337 20.9644 18.1646 21.1055 18.4465Z" fill="#FFFFFF" fill-opacity="1.000000" fill-rule="nonzero"/>
		<path id="Vector" d="M12.002 9.99951C13.105 9.99951 14.002 9.10254 14.002 7.99951C14.002 6.89648 13.105 5.99951 12.002 5.99951C10.8989 5.99951 10.002 6.89648 10.002 7.99951C10.002 9.10254 10.8989 9.99951 12.002 9.99951Z" fill="#FFFFFF" fill-opacity="1.000000" fill-rule="evenodd"/>
	</g>
</svg>
