<svg width="12" height="18" viewBox="0 0 12 18" fill="none" xmlns="http://www.w3.org/2000/svg">
<path d="M5.95414 17.3475C6.89855 17.3475 7.66414 16.5819 7.66414 15.6375C7.66414 14.6931 6.89855 13.9275 5.95414 13.9275C5.00973 13.9275 4.24414 14.6931 4.24414 15.6375C4.24414 16.5819 5.00973 17.3475 5.95414 17.3475Z" fill="#7C8DB5"/>
<path d="M9.89312 1.68749C8.77859 0.833381 7.40425 0.388507 6.00062 0.42749C5.3231 0.388058 4.64448 0.483454 4.00409 0.708153C3.36369 0.932852 2.77425 1.28239 2.2699 1.73651C1.76555 2.19063 1.35632 2.74032 1.06592 3.35372C0.775522 3.96712 0.609721 4.63205 0.578125 5.30999V5.55749H3.36812V5.33249C3.41441 4.67591 3.71574 4.06351 4.20769 3.62622C4.69964 3.18893 5.34315 2.96148 6.00062 2.99249C6.31795 2.95412 6.63982 2.98381 6.94478 3.07958C7.24973 3.17534 7.53079 3.33498 7.76922 3.54786C8.00765 3.76075 8.19799 4.02199 8.32755 4.3142C8.45712 4.6064 8.52294 4.92286 8.52062 5.24249C8.52062 6.02999 7.98063 6.88499 6.76562 7.73999C6.16371 8.07824 5.6477 8.55046 5.25753 9.1201C4.86737 9.68974 4.61352 10.3415 4.51562 11.025V11.835H7.30562V11.25C7.32594 10.8156 7.51099 10.4053 7.82313 10.1025C8.17875 9.70014 8.57038 9.33111 8.99312 8.99999L9.37562 8.68499C10.002 8.27785 10.5171 7.72117 10.8746 7.06519C11.232 6.4092 11.4206 5.67454 11.4231 4.92749C11.4255 4.30759 11.2893 3.69499 11.0246 3.13444C10.7599 2.57389 10.3733 2.07954 9.89312 1.68749Z" fill="#7C8DB5"/>
</svg>
