<svg width="18.000000" height="20.000000" viewBox="0 0 18 20" fill="none" xmlns="http://www.w3.org/2000/svg" xmlns:xlink="http://www.w3.org/1999/xlink">
	<desc>
			Created with Pixso.
	</desc>
	<defs/>
	<path id="" d="M10.7676 16.25L11.7324 16.25C11.9727 16.25 12.2148 16.0547 12.2148 15.7812L12.2148 7.34375C12.2148 7.10938 11.9727 6.875 11.7324 6.875L10.7676 6.875C10.4863 6.875 10.2852 7.10938 10.2852 7.34375L10.2852 15.7812C10.2852 16.0547 10.4863 16.25 10.7676 16.25ZM17.3574 3.125L14.0215 3.125L12.6562 0.9375C12.334 0.390625 11.6914 0 11.0098 0L6.95117 0C6.26758 0 5.625 0.390625 5.30273 0.9375L3.9375 3.125L0.642578 3.125C0.28125 3.125 0 3.4375 0 3.75L0 4.375C0 4.72656 0.28125 5 0.642578 5L1.28516 5L1.28516 18.125C1.28516 19.1797 2.12891 20 3.21484 20L14.7852 20C15.8301 20 16.7148 19.1797 16.7148 18.125L16.7148 5L17.3574 5C17.6777 5 18 4.72656 18 4.375L18 3.75C18 3.4375 17.6777 3.125 17.3574 3.125ZM6.87109 1.99219C6.91016 1.95312 6.99023 1.875 7.07227 1.875C7.07227 1.875 7.07227 1.875 7.11133 1.875L10.8887 1.875C10.9688 1.875 11.0488 1.95312 11.0898 1.99219L11.7715 3.125L6.1875 3.125L6.87109 1.99219ZM14.7852 18.125L3.21484 18.125L3.21484 5L14.7852 5L14.7852 18.125ZM6.26758 16.25L7.23242 16.25C7.47266 16.25 7.71484 16.0547 7.71484 15.7812L7.71484 7.34375C7.71484 7.10938 7.47266 6.875 7.23242 6.875L6.26758 6.875C5.98633 6.875 5.78516 7.10938 5.78516 7.34375L5.78516 15.7812C5.78516 16.0547 5.98633 16.25 6.26758 16.25Z" fill="#E80A25" fill-opacity="1.000000" fill-rule="nonzero"/>
</svg>
