<svg width="24.000000" height="24.000000" viewBox="0 0 24 24" fill="none" xmlns="http://www.w3.org/2000/svg" xmlns:xlink="http://www.w3.org/1999/xlink">
	<desc>
			Created with Pixso.
	</desc>
	<defs>
		<clipPath id="clip282_19428">
			<rect id="study-university-svgrepo-com 1" width="24.000000" height="24.000000" fill="white" fill-opacity="0"/>
		</clipPath>
	</defs>
	<rect id="study-university-svgrepo-com 1" width="24.000000" height="24.000000" fill="#FFFFFF" fill-opacity="0"/>
	<g clip-path="url(#clip282_19428)">
		<path id="Path 92" d="M5.00098 9.99878L5.00098 18.8676L5.01514 18.8676C5.16309 20.6069 8.22998 21.9988 12.001 21.9988C15.7725 21.9988 18.8394 20.6084 18.9873 18.8676L19.001 18.8676L19.001 9.99878L5.00098 9.99878Z" fill="#FFFFFF" fill-opacity="1.000000" fill-rule="nonzero"/>
		<path id="Path 93 (Stroke)" d="M11.5542 3.10437C11.8354 2.96362 12.167 2.96362 12.4487 3.10437L23.4482 8.60437C23.7871 8.7738 24.001 9.12 24.001 9.49878C24.001 9.87756 23.7871 10.2238 23.4482 10.3932L12.4487 15.8932C12.167 16.0339 11.8354 16.0339 11.5542 15.8932L0.553711 10.3932C0.214844 10.2239 0.000976562 9.87756 0.000976562 9.49878C0.000976562 9.12 0.214844 8.77368 0.553711 8.60437L11.5542 3.10437ZM3.2373 9.49878L12.0015 13.8807L20.7651 9.49878L12.0015 5.11682L3.2373 9.49878Z" fill="#FFFFFF" fill-opacity="1.000000" fill-rule="evenodd"/>
		<path id="Union" d="M12.0015 14.9988L23.001 9.49878L12.0015 3.99878L1.60498 9.1969C1.43799 9.07202 1.22949 8.99878 1.00098 8.99878C0.440918 8.99878 0.000976562 9.43872 0.000976562 9.99878L0.000976562 16.9988C0.000976562 17.5588 0.440918 17.9988 1.00098 17.9988C1.56104 17.9988 2.00098 17.5588 2.00098 16.9988L2.00098 9.99878L12.0015 14.9988Z" clip-rule="evenodd" fill="#FFFFFF" fill-opacity="1.000000" fill-rule="evenodd"/>
	</g>
</svg>
