<svg width="24.000000" height="24.000000" viewBox="0 0 24 24" fill="none" xmlns="http://www.w3.org/2000/svg" xmlns:xlink="http://www.w3.org/1999/xlink">
	<desc>
			Created with Pixso.
	</desc>
	<defs>
		<clipPath id="clip281_17354">
			<rect id="Frame" width="24.000000" height="24.000000" transform="matrix(-1 0 0 1 24 0)" fill="white" fill-opacity="0"/>
		</clipPath>
	</defs>
	<g clip-path="url(#clip281_17354)">
		<path id="Vector" d="M0 14.447C0.0861816 14.6802 0.150879 14.9204 0.251709 15.1462C0.826904 16.4353 1.8335 17.1127 3.22119 17.1927C3.52295 17.2074 3.81787 17.2001 4.11987 17.1927C4.67334 17.1855 4.95386 16.9015 4.95386 16.3407C4.95386 14.0465 4.95386 11.7595 4.95386 9.46533C4.95386 5.6781 7.33374 2.80859 11.0078 2.16772C13.9485 1.65784 17.1768 3.44946 18.4062 6.28259C18.8303 7.25134 19.0391 8.25635 19.0391 9.3125C19.0391 11.6284 19.0391 13.9445 19.0391 16.2605C19.0391 16.9015 19.2761 17.1637 19.9089 17.2074C21.0522 17.2802 22.1306 17.1053 23.0005 16.2533C23.5039 15.7581 23.8347 15.1681 23.9353 14.4617C23.9626 14.2698 24 14.0829 24 14.0829C24 13.187 24 12.2839 24 11.3882C23.7053 9.63293 22.6411 8.61328 20.9084 8.46033C20.6638 8.43848 20.5847 8.32922 20.5559 8.10339C20.4338 7.13477 20.1606 6.20984 19.7148 5.33582C18.363 2.70667 16.2493 1.08252 13.366 0.616333C9.1311 -0.0755615 5.32056 2.38623 3.91846 6.18799C3.68848 6.81433 3.52295 7.46252 3.44409 8.12524C3.41528 8.3656 3.33618 8.4458 3.09155 8.46765C1.7688 8.57678 0.805176 9.2323 0.21582 10.4486C0.0717773 10.7545 0.0717773 11.0823 0 11.3954C0 12.4077 0 13.4274 0 14.447Z" fill="#7C8DB5" fill-opacity="1.000000" fill-rule="nonzero"/>
		<path id="Vector" d="M12.0081 20.4702C11.6699 20.4702 11.3394 20.4557 11.0015 20.4702C10.2034 20.5067 9.58496 21.1694 9.57764 21.9633C9.57056 22.7644 10.1746 23.4418 10.9727 23.4781C11.6558 23.5073 12.3386 23.5073 13.0217 23.4781C13.8198 23.4418 14.4309 22.7644 14.4238 21.9633C14.4165 21.1621 13.8054 20.5067 13.0073 20.463C12.6765 20.4557 12.3386 20.4702 12.0081 20.4702Z" fill="#7C8DB5" fill-opacity="1.000000" fill-rule="nonzero"/>
		<path id="Vector" d="M20.8223 18.0784C20.585 18.0784 20.3477 18.0857 20.1104 18.0784C19.9451 18.0712 19.9595 18.2023 19.9307 18.2969C19.4419 20.0084 18.3418 21.0645 16.6233 21.4651C16.2495 21.5525 15.8613 21.5598 15.4802 21.5525C15.3147 21.5452 15.2285 21.5598 15.2356 21.7782C15.2644 22.4047 15.25 22.4047 15.8828 22.3973C18.3562 22.3463 20.4915 20.4891 20.8223 18.0784Z" fill="#7C8DB5" fill-opacity="1.000000" fill-rule="nonzero"/>
	</g>
</svg>
