<svg width="20.343117" height="17.780029" viewBox="0 0 20.3431 17.78" fill="none" xmlns="http://www.w3.org/2000/svg" xmlns:xlink="http://www.w3.org/1999/xlink">
	<desc>
			Created with Pixso.
	</desc>
	<defs/>
	<path id="Vector" d="M4.38 10.76C4.42 10.78 4.46 10.79 4.51 10.8C4.56 10.91 4.62 11.06 4.69 11.23C4.87 11.64 5.11 12.21 5.35 12.8C5.85 14 6.36 15.24 6.47 15.59C6.61 16.03 6.76 16.33 6.92 16.53C7 16.64 7.1 16.73 7.21 16.8C7.26 16.83 7.32 16.86 7.39 16.88C7.39 16.89 7.39 16.89 7.39 16.89C7.71 17.01 8.01 16.96 8.19 16.9C8.29 16.86 8.37 16.82 8.42 16.79C8.45 16.78 8.47 16.76 8.49 16.75L8.5 16.74L11.32 14.98L14.59 17.48C14.64 17.52 14.69 17.55 14.75 17.58C15.14 17.75 15.52 17.81 15.87 17.76C16.23 17.71 16.51 17.56 16.72 17.39C16.93 17.23 17.07 17.04 17.16 16.9C17.2 16.83 17.24 16.77 17.26 16.72C17.27 16.7 17.28 16.68 17.29 16.66L17.3 16.64L17.3 16.63L17.3 16.63L17.3 16.63L17.3 16.63C17.32 16.58 17.33 16.54 17.34 16.49L20.32 1.47C20.33 1.42 20.34 1.37 20.34 1.32C20.34 0.88 20.17 0.46 19.78 0.21C19.45 -0.01 19.08 -0.02 18.84 0C18.59 0.02 18.36 0.08 18.2 0.13C18.12 0.16 18.05 0.18 18 0.2C17.98 0.21 17.96 0.22 17.94 0.23L17.93 0.23L1.22 6.79L1.21 6.79C1.2 6.79 1.19 6.8 1.17 6.8C1.14 6.82 1.1 6.83 1.05 6.86C0.95 6.9 0.81 6.97 0.67 7.07C0.44 7.23 -0.08 7.65 0 8.35C0.08 8.92 0.46 9.26 0.69 9.43C0.82 9.52 0.94 9.58 1.03 9.62C1.07 9.64 1.16 9.68 1.2 9.69L1.21 9.7L4.38 10.76ZM18.51 1.61L18.51 1.61C18.5 1.62 18.49 1.62 18.49 1.62L1.75 8.19C1.74 8.19 1.73 8.2 1.73 8.2L1.72 8.2C1.71 8.21 1.69 8.21 1.67 8.22C1.65 8.23 1.64 8.24 1.63 8.24C1.64 8.25 1.66 8.26 1.68 8.27C1.69 8.28 1.71 8.28 1.71 8.29L4.85 9.34C4.91 9.36 4.97 9.39 5.01 9.42L15.39 3.34L15.4 3.34C15.41 3.33 15.42 3.33 15.43 3.32C15.45 3.31 15.49 3.29 15.53 3.27C15.6 3.23 15.71 3.18 15.84 3.14C15.93 3.11 16.2 3.03 16.49 3.13C16.66 3.18 16.85 3.31 16.97 3.51C17.03 3.62 17.06 3.72 17.08 3.81C17.12 3.96 17.11 4.11 17.08 4.24C17.01 4.51 16.82 4.73 16.64 4.89C16.49 5.03 14.54 6.91 12.63 8.76C11.67 9.68 10.72 10.6 10.01 11.28L9.55 11.73L15.42 16.23C15.55 16.28 15.63 16.28 15.67 16.27C15.72 16.27 15.75 16.25 15.79 16.22C15.83 16.19 15.86 16.14 15.89 16.1L15.89 16.1L18.78 1.53C18.74 1.54 18.7 1.55 18.65 1.56C18.61 1.58 18.57 1.59 18.54 1.6C18.53 1.61 18.52 1.61 18.52 1.61L18.51 1.61ZM10.05 14.01L8.88 13.11L8.6 14.91L10.05 14.01ZM7.81 11.33L8.97 10.2C9.68 9.52 10.63 8.6 11.58 7.68L12.56 6.74L6.04 10.56L6.07 10.64C6.25 11.06 6.49 11.63 6.74 12.22C6.92 12.66 7.12 13.13 7.29 13.56L7.57 11.76C7.6 11.59 7.69 11.44 7.81 11.33Z" fill="#7C8DB5" fill-opacity="1.000000" fill-rule="evenodd"/>
</svg>
