<svg width="24.000000" height="31.500000" viewBox="0 0 24 31.5" fill="none" xmlns="http://www.w3.org/2000/svg" xmlns:xlink="http://www.w3.org/1999/xlink">
	<desc>
			Created with Pixso.
	</desc>
	<defs/>
	<path id="Vector" d="M24 31.5L0 31.5L0 28.5C0 26.5109 0.790283 24.6033 2.19678 23.1967C3.60327 21.7902 5.51099 21 7.5 21L16.5 21C18.489 21 20.3967 21.7902 21.8032 23.1967C23.2097 24.6033 24 26.5109 24 28.5L24 31.5ZM12 18C10.8181 18 9.64771 17.7672 8.55591 17.3149C7.46387 16.8627 6.47168 16.1997 5.63599 15.364C4.80029 14.5282 4.13745 13.5361 3.68506 12.4441C3.23291 11.3522 3 10.1819 3 9C3 7.81812 3.23291 6.64783 3.68506 5.55591C4.13745 4.46387 4.80029 3.4718 5.63599 2.63599C6.47168 1.80029 7.46387 1.13733 8.55591 0.685059C9.64771 0.232788 10.8181 0 12 0C14.387 0 16.676 0.948242 18.364 2.63599C20.0518 4.32385 21 6.61304 21 9C21 11.387 20.0518 13.6761 18.364 15.364C16.676 17.0518 14.387 18 12 18Z" fill="#1E1E2D" fill-opacity="1.000000" fill-rule="nonzero"/>
</svg>
