<svg width="100.000000" height="100.000000" viewBox="0 0 100 100" fill="none" xmlns="http://www.w3.org/2000/svg" xmlns:xlink="http://www.w3.org/1999/xlink">
	<desc>
			Created with Pixso.
	</desc>
	<defs>
		<clipPath id="clip283_24458">
			<rect id="remix-icons/fill/media/camera-fill" width="32.000000" height="32.000000" transform="translate(34.000000 34.000000)" fill="white" fill-opacity="0"/>
		</clipPath>
		<clipPath id="clip283_24457">
			<rect id="Frame 1863" rx="50.000000" width="100.000000" height="100.000000" fill="white" fill-opacity="0"/>
		</clipPath>
	</defs>
	<rect id="Frame 1863" rx="50.000000" width="100.000000" height="100.000000" fill="#F3F6F9" fill-opacity="1.000000"/>
	<g clip-path="url(#clip283_24457)">
		<rect id="remix-icons/fill/media/camera-fill" width="32.000000" height="32.000000" transform="translate(34.000000 34.000000)" fill="#FFFFFF" fill-opacity="0"/>
		<g clip-path="url(#clip283_24458)">
			<path id="Vector" d="M46 38L54 38L56.6667 40.6666L62 40.6666C62.3538 40.6666 62.6929 40.8071 62.9429 41.0573C63.1929 41.3073 63.3335 41.6464 63.3335 42L63.3335 60.6666C63.3335 61.0203 63.1929 61.3594 62.9429 61.6095C62.6929 61.8595 62.3538 62 62 62L38 62C37.6465 62 37.3074 61.8595 37.0574 61.6095C36.8071 61.3594 36.6667 61.0203 36.6667 60.6666L36.6667 42C36.6667 41.6464 36.8071 41.3073 37.0574 41.0573C37.3074 40.8071 37.6465 40.6666 38 40.6666L43.3335 40.6666L46 38ZM50 59.3334C52.1218 59.3334 54.1567 58.4905 55.657 56.9902C57.1572 55.4899 58 53.4551 58 51.3334C58 49.2115 57.1572 47.1768 55.657 45.6765C54.1567 44.1761 52.1218 43.3334 50 43.3334C47.8784 43.3334 45.8435 44.1761 44.3433 45.6765C42.843 47.1768 42 49.2115 42 51.3334C42 53.4551 42.843 55.4899 44.3433 56.9902C45.8435 58.4905 47.8784 59.3334 50 59.3334ZM50 56.6666C48.5857 56.6666 47.229 56.1047 46.2288 55.1046C45.2288 54.1044 44.6667 52.7478 44.6667 51.3334C44.6667 49.9188 45.2288 48.5623 46.2288 47.5621C47.229 46.5619 48.5857 46 50 46C51.4146 46 52.7712 46.5619 53.7712 47.5621C54.7715 48.5623 55.3335 49.9188 55.3335 51.3334C55.3335 52.7478 54.7715 54.1044 53.7712 55.1046C52.7712 56.1047 51.4146 56.6666 50 56.6666Z" fill="#8F9294" fill-opacity="1.000000" fill-rule="nonzero"/>
		</g>
	</g>
</svg>
