<svg width="27" height="29" viewBox="0 0 27 29" fill="none" xmlns="http://www.w3.org/2000/svg">
<path d="M18.3321 6.3328L7.1134 17.7808C6.6132 18.281 6.33219 18.9594 6.33219 19.6668C6.33219 20.3742 6.6132 21.0526 7.1134 21.5528C7.6136 22.053 8.29201 22.334 8.9994 22.334C9.70679 22.334 10.3852 22.053 10.8854 21.5528L22.1041 10.1048C23.1043 9.10459 23.6662 7.748 23.6662 6.33347C23.6662 4.91895 23.1043 3.56236 22.1041 2.56214C21.1038 1.56192 19.7473 1 18.3327 1C16.9182 1 15.5616 1.56192 14.5614 2.56214L3.3894 13.9635C2.6366 14.7041 2.03789 15.5865 1.6278 16.5597C1.21771 17.5328 1.00437 18.5776 1.00007 19.6336C0.995766 20.6897 1.2006 21.7361 1.60275 22.7126C2.00489 23.6891 2.5964 24.5763 3.34315 25.3231C4.08989 26.0698 4.9771 26.6613 5.95359 27.0635C6.93008 27.4656 7.97653 27.6704 9.03257 27.6661C10.0886 27.6618 11.1334 27.4485 12.1066 27.0384C13.0797 26.6283 13.9621 26.0296 14.7027 25.2768L25.8747 13.8755" stroke="#8E8E8E" stroke-width="2" stroke-linecap="round" stroke-linejoin="round"/>
</svg>
