<svg width="28" height="26" viewBox="0 0 28 26" fill="none" xmlns="http://www.w3.org/2000/svg">
<path d="M26.3369 13.0033C26.3369 13.1296 26.3011 13.2533 26.2335 13.36C26.1659 13.4667 26.0695 13.552 25.9553 13.606L1.95529 24.9393C1.83541 24.9974 1.70083 25.0181 1.56904 24.9987C1.43724 24.9794 1.31432 24.9208 1.21625 24.8306C1.11818 24.7405 1.0495 24.6229 1.01913 24.4932C0.988757 24.3635 0.998105 24.2276 1.04595 24.1033L4.83529 13.934C5.05885 13.3337 5.05885 12.6729 4.83529 12.0726L1.04462 1.9033C0.996528 1.77883 0.987057 1.64275 1.01744 1.51281C1.04783 1.38287 1.11666 1.2651 1.21496 1.17486C1.31327 1.08461 1.43648 1.02608 1.56854 1.0069C1.7006 0.987713 1.83537 1.00876 1.95529 1.0673L25.9553 12.4006C26.0695 12.4546 26.1659 12.5399 26.2335 12.6466C26.3011 12.7533 26.3369 12.877 26.3369 13.0033ZM26.3369 13.0033H5.00329" stroke="white" stroke-width="2" stroke-linecap="round" stroke-linejoin="round"/>
</svg>
