<svg width="155.710938" height="164.869568" viewBox="0 0 155.711 164.87" fill="none" xmlns="http://www.w3.org/2000/svg" xmlns:xlink="http://www.w3.org/1999/xlink">
	<desc>
			Created with Pixso.
	</desc>
	<defs>
		<clipPath id="clip451_10017">
			<rect id="logo-footer (1) 1" width="155.710144" height="164.869568" fill="white" fill-opacity="0"/>
		</clipPath>
		<linearGradient id="paint_linear_451_10019_0" x1="93.341888" y1="3.731212" x2="93.341888" y2="164.130219" gradientUnits="userSpaceOnUse">
			<stop stop-color="#FF9124"/>
			<stop offset="1.000000" stop-color="#E80A25"/>
		</linearGradient>
		<linearGradient id="paint_linear_451_10020_0" x1="24.756407" y1="70.856697" x2="24.756407" y2="128.391129" gradientUnits="userSpaceOnUse">
			<stop stop-color="#FF9124"/>
			<stop offset="1.000000" stop-color="#E80A25"/>
		</linearGradient>
	</defs>
	<rect id="logo-footer (1) 1" width="155.710144" height="164.869568" fill="#FFFFFF" fill-opacity="0"/>
	<g clip-path="url(#clip451_10017)">
		<path id="Fill-1" d="M136.18 1.55193L123.875 8.21818C120.09 10.273 117.768 14.0507 117.752 18.1452L117.752 46.3319L99.291 36.3759C95.4922 34.321 90.8008 34.321 86.9863 36.3759L37.7441 62.9252C35.8535 63.945 34.2988 65.4101 33.252 67.1342C32.1758 68.8432 31.6055 70.8125 31.6055 72.8648C31.6055 73.5841 31.6816 74.3022 31.8203 74.9926C32.3145 77.4926 33.6836 79.7612 35.7285 81.4564C35.7754 81.4991 35.8359 81.557 35.8965 81.601C36.4668 82.0449 37.0977 82.4624 37.7598 82.8221L39.5137 83.7552L47.7129 88.1666L50.0977 89.4443C51.5117 90.2051 53.0508 90.6792 54.6035 90.8666C57.125 91.1822 59.7246 90.766 62.0195 89.6027C62.1426 89.5449 62.25 89.4883 62.3574 89.4305L62.4512 89.3877L67.1406 86.8588L69.1406 85.7811L69.2031 85.7534L76.1406 82.0172L87.002 76.1696C90.8008 74.1148 95.4766 74.1148 99.291 76.1696L111.584 82.807C115.398 84.848 117.752 88.6546 117.752 92.7491L117.752 106.036C117.752 110.132 115.398 113.925 111.6 115.978L99.291 122.616C95.4922 124.669 90.8008 124.669 86.9863 122.616L76.1406 116.768L70.0469 113.494L69.2031 113.033L66.1875 111.41L62.4941 109.413L62.3574 109.342C62.25 109.285 62.1426 109.227 62.0195 109.169C59.7246 108.006 57.125 107.588 54.6035 107.905C53.0352 108.092 51.4805 108.565 50.0645 109.342L47.6348 110.649L47.0488 110.965L40.8047 114.341L39.1445 115.232L37.7441 115.978C37.0059 116.381 36.3301 116.841 35.6973 117.357C33.6836 119.053 32.3145 121.338 31.8203 123.822C31.6816 124.511 31.6055 125.216 31.6055 125.919L31.6055 125.934C31.6055 126.194 31.6211 126.451 31.6367 126.695C31.8984 130.517 34.1738 133.965 37.7441 135.89L86.9863 162.439C88.8711 163.453 90.9688 163.968 93.0684 163.979L93.2207 163.979C95.3184 163.968 97.4141 163.453 99.291 162.439L148.518 135.89C152.318 133.834 154.672 130.043 154.672 125.934L154.672 72.8372C154.672 72.8082 154.658 72.7793 154.658 72.7516L154.641 11.4652C154.641 9.41033 154.057 7.44228 152.994 5.73327C151.934 4.00918 150.41 2.55797 148.502 1.5381C146.598 0.513201 144.477 0.00012207 142.354 0.00012207C140.223 0.00012207 138.09 0.516973 136.18 1.55193Z" fill="url(#paint_linear_451_10019_0)" fill-opacity="1.000000" fill-rule="evenodd"/>
		<path id="Fill-4" d="M2.54297 69.679C1.69531 69.2202 0.640625 69.799 0.640625 70.7228L0.640625 77.1325L0.640625 127.132C0.640625 128.056 1.69531 128.635 2.54297 128.176L10 124.127C10.3945 123.914 10.6387 123.516 10.6387 123.085L10.6387 84.6227C10.6387 83.6989 11.6914 83.1201 12.5391 83.5788L19.0371 87.0984C19.4316 87.3132 19.6777 87.7113 19.6777 88.1422L19.6777 116.8C19.6777 117.725 20.7324 118.303 21.5781 117.844L29.0391 113.795C29.4316 113.581 29.6758 113.183 29.6758 112.752L29.6758 94.9348C29.6758 94.011 30.7305 93.4323 31.5762 93.891L38.0762 97.4118C38.4707 97.6266 38.7168 98.0247 38.7168 98.4556L38.7168 106.468C38.7168 107.392 39.7695 107.97 40.6172 107.51L48.0742 103.463C48.4688 103.248 48.7129 102.851 48.7129 102.42L48.7129 95.4353C48.7129 95.0043 48.4688 94.6063 48.0742 94.3927L2.54297 69.679Z" fill="url(#paint_linear_451_10020_0)" fill-opacity="1.000000" fill-rule="evenodd"/>
	</g>
</svg>
