<svg width="24.000000" height="24.000000" viewBox="0 0 24 24" fill="none" xmlns="http://www.w3.org/2000/svg" xmlns:xlink="http://www.w3.org/1999/xlink">
	<desc>
			Created with Pixso.
	</desc>
	<defs>
		<clipPath id="clip4_8663">
			<rect id="remix-icons/fill/system/eye-off-fill" width="16.000000" height="16.000000" transform="translate(4.000000 4.000000)" fill="white" fill-opacity="0"/>
		</clipPath>
	</defs>
	<rect id="icon_view" rx="12.000000" width="24.000000" height="24.000000" fill="#FFFFFF" fill-opacity="1.000000"/>
	<rect id="remix-icons/fill/system/eye-off-fill" width="16.000000" height="16.000000" transform="translate(4.000000 4.000000)" fill="#FFFFFF" fill-opacity="0"/>
	<g clip-path="url(#clip4_8663)">
		<path id="Vector" d="M7.01367 7.95599L4.92773 5.87198L5.87109 4.92865L19.0703 18.1287L18.127 19.0713L15.9219 16.8647C14.748 17.6084 13.3887 18.0022 12 18C8.4043 18 5.41406 15.4133 4.78711 12C5.07422 10.4471 5.85547 9.02859 7.01367 7.95599L7.01367 7.95599ZM13.8379 14.7813L12.8613 13.8053C12.4883 13.9839 12.0684 14.0423 11.6602 13.9725C11.2539 13.9027 10.877 13.708 10.584 13.4154C10.291 13.1228 10.0977 12.7466 10.0273 12.3387C9.95703 11.9308 10.0156 11.5113 10.1953 11.138L9.21875 10.162C8.79492 10.803 8.60547 11.5709 8.68164 12.3356C8.75781 13.1004 9.09766 13.8151 9.64062 14.3586C10.1855 14.9021 10.8984 15.2411 11.6641 15.3181C12.4297 15.3951 13.1973 15.2055 13.8379 14.7813ZM9.31641 6.50665C10.1465 6.17999 11.0527 5.99997 12 5.99997C15.5938 5.99997 18.5859 8.58664 19.2129 12C19.0078 13.1104 18.5488 14.1584 17.8711 15.0613L15.2969 12.488C15.375 11.9731 15.3281 11.4474 15.166 10.9531C15.002 10.4588 14.7266 10.0096 14.3574 9.64148C13.9902 9.27341 13.541 8.99664 13.0469 8.83337C12.5508 8.6701 12.0254 8.62488 11.5117 8.70132L9.31641 6.50732L9.31641 6.50665Z" fill="#7C8DB5" fill-opacity="1.000000" fill-rule="nonzero"/>
	</g>
</svg>
