<svg width="24.000000" height="24.000000" viewBox="0 0 24 24" fill="none" xmlns="http://www.w3.org/2000/svg" xmlns:xlink="http://www.w3.org/1999/xlink">
	<desc>
			Created with Pixso.
	</desc>
	<defs>
		<clipPath id="clip4_8672">
			<rect id="remix-icons/fill/system/eye-fill" width="16.000000" height="16.000000" transform="translate(4.000000 4.000000)" fill="white" fill-opacity="0"/>
		</clipPath>
	</defs>
	<rect id="Property 1=active" rx="12.000000" width="24.000000" height="24.000000" fill="#FFFFFF" fill-opacity="1.000000"/>
	<rect id="remix-icons/fill/system/eye-fill" width="16.000000" height="16.000000" transform="translate(4.000000 4.000000)" fill="#FFFFFF" fill-opacity="0"/>
	<g clip-path="url(#clip4_8672)">
		<path id="Vector" d="M4.78711 12C5.41406 8.58667 8.4043 6 12 6C15.5938 6 18.5859 8.58667 19.2129 12C18.5859 15.4133 15.5938 18 12 18C8.4043 18 5.41406 15.4133 4.78711 12ZM12 15.3333C12.8848 15.3333 13.7324 14.9821 14.3574 14.357C14.9824 13.7319 15.334 12.8841 15.334 12C15.334 11.1159 14.9824 10.2681 14.3574 9.64297C13.7324 9.01785 12.8848 8.66666 12 8.66666C11.1152 8.66666 10.2676 9.01785 9.64258 9.64297C9.01758 10.2681 8.66602 11.1159 8.66602 12C8.66602 12.8841 9.01758 13.7319 9.64258 14.357C10.2676 14.9821 11.1152 15.3333 12 15.3333ZM12 14C11.4688 14 10.9609 13.7893 10.5859 13.4142C10.2109 13.0392 10 12.5304 10 12C10 11.4696 10.2109 10.9608 10.5859 10.5858C10.9609 10.2107 11.4688 10 12 10C12.5293 10 13.0391 10.2107 13.4141 10.5858C13.7891 10.9608 14 11.4696 14 12C14 12.5304 13.7891 13.0392 13.4141 13.4142C13.0391 13.7893 12.5293 14 12 14Z" fill="#84299A" fill-opacity="1.000000" fill-rule="nonzero"/>
	</g>
</svg>
