<?xml version="1.0" encoding="UTF-8" standalone="no"?>
<svg
   xmlns:dc="http://purl.org/dc/elements/1.1/"
   xmlns:cc="http://creativecommons.org/ns#"
   xmlns:rdf="http://www.w3.org/1999/02/22-rdf-syntax-ns#"
   xmlns:svg="http://www.w3.org/2000/svg"
   xmlns="http://www.w3.org/2000/svg"
   xmlns:sodipodi="http://sodipodi.sourceforge.net/DTD/sodipodi-0.dtd"
   xmlns:inkscape="http://www.inkscape.org/namespaces/inkscape"
   width="156"
   height="164"
   viewBox="0 0 155.99957 164.00043"
   version="1.1"
   id="svg22"
   sodipodi:docname="scanport-orange-logo.svg"
   style="fill:none"
   inkscape:version="0.92.4 (5da689c313, 2019-01-14)">
  <metadata
     id="metadata26">
    <rdf:RDF>
      <cc:Work
         rdf:about="">
        <dc:format>image/svg+xml</dc:format>
        <dc:type
           rdf:resource="http://purl.org/dc/dcmitype/StillImage" />
        <dc:title />
      </cc:Work>
    </rdf:RDF>
  </metadata>
  <sodipodi:namedview
     pagecolor="#ffffff"
     bordercolor="#666666"
     borderopacity="1"
     objecttolerance="10"
     gridtolerance="10"
     guidetolerance="10"
     inkscape:pageopacity="0"
     inkscape:pageshadow="2"
     inkscape:window-width="1449"
     inkscape:window-height="582"
     id="namedview24"
     showgrid="false"
     inkscape:zoom="1.4314346"
     inkscape:cx="-63.921801"
     inkscape:cy="82.434784"
     inkscape:window-x="19"
     inkscape:window-y="453"
     inkscape:window-maximized="0"
     inkscape:current-layer="svg22" />
  <desc
     id="desc2">
			Created with Pixso.
	</desc>
  <defs
     id="defs11">
    <clipPath
       id="clip451_10008">
      <rect
         id="logo-footer 1"
         width="123.65218"
         height="164.86957"
         x="0"
         y="0"
         style="fill:#ffffff;fill-opacity:0" />
    </clipPath>
    <linearGradient
       id="paint_linear_451_10016_0"
       x1="60.621429"
       y1="3.7310891"
       x2="60.621429"
       y2="164.12219"
       gradientUnits="userSpaceOnUse">
      <stop
         stop-color="#FF9124"
         id="stop6" />
      <stop
         offset="1.000000"
         stop-color="#E80A25"
         id="stop8" />
    </linearGradient>
  </defs>
  <rect
     id="rect13"
     width="123.65218"
     height="164.86957"
     x="0"
     y="-0.86957014"
     style="fill:#ffffff;fill-opacity:0" />
  <g
     clip-path="url(#clip451_10008)"
     id="g20"
     transform="translate(0,-0.86957014)">
    <mask
       id="mask451_10014"
       mask-type="alpha"
       maskUnits="userSpaceOnUse"
       x="0.000000"
       y="0.089478"
       width="123.648438"
       height="165.074417">
      <path
         id="Vector"
         d="M 12.2559,0.0894775 C 10.1641,0.108969 8.07422,0.625507 6.19531,1.6377 4.2793,2.66799 2.74609,4.13128 1.67578,5.8591 0.605469,7.58693 0.0214844,9.56954 0.0214844,11.6371 L 0.00390625,53.336 c 0,0 2.35742375,0.8298 6.17187375,-1.228 L 37.0859,35.4034 V 18.3618 C 37.0742,14.2351 34.7324,10.43 30.9297,8.36243 L 18.5684,1.64744 C 16.6895,0.628292 14.5957,0.108969 12.498,0.0894775 Z M 55.6406,36.7065 37.0859,46.7352 6.17578,63.4384 C 2.36133,65.4976 0.00976562,69.3027 0,73.4197 v 53.4543 c 0,4.126 2.34961,7.94 6.17578,10.007 l 49.46482,26.732 c 3.8164,2.068 8.5293,2.068 12.3535,0 l 49.4749,-26.732 c 3.824,-2.067 6.179,-5.881 6.179,-10.007 v -0.021 c 0,-4.124 -2.355,-7.94 -6.179,-10.008 l -12.381,-6.684 c -3.824,-2.068 -8.5275,-2.068 -12.3517,0 l -24.7422,13.37 c -3.8242,2.067 -8.5371,2.058 -12.3535,0 l -12.3691,-6.686 c -3.8145,-2.068 -6.1758,-5.882 -6.1758,-10.008 V 93.4574 c 0,-4.1267 2.3613,-7.9513 6.1855,-10.0105 l 12.3594,-6.676 c 3.8242,-2.0675 8.5293,-2.0675 12.3418,0 l 24.7539,13.3534 c 3.8145,2.0564 8.5077,2.0564 12.3207,0.0084 l 12.394,-6.6663 c 3.834,-2.0592 6.197,-5.8838 6.197,-10.0189 0,-2.0675 -0.587,-4.0501 -1.656,-5.778 -1.06,-1.7278 -2.615,-3.2008 -4.523,-4.2311 L 67.9941,36.7065 c -1.9121,-1.033 -4.0449,-1.5496 -6.1796,-1.5496 -2.1329,0 -4.2657,0.5166 -6.1739,1.5496 z"
         inkscape:connector-curvature="0"
         style="fill:#ffffff;fill-opacity:1;fill-rule:nonzero" />
    </mask>
    <g
       mask="url(#mask451_10014)"
       id="g18">
      <path
         id="Fill-1"
         d="M 10.8496,1.83105e-4 C 8.75781,0.0195446 6.66797,0.532629 4.78906,1.53805 2.87305,2.56145 1.33984,4.01496 0.269531,5.73124 -0.800781,7.44751 -1.38477,9.41686 -1.38477,11.4706 l -0.01757,41.4201 c 0,0 2.357418,0.8243 6.17187,-1.2198 L 35.6797,35.078 V 18.1504 C 35.668,14.0512 33.3262,10.2715 29.5234,8.21782 L 17.1621,1.54773 C 15.2832,0.535395 13.1895,0.0195446 11.0918,1.83105e-4 Z M 54.2344,36.3724 35.6797,46.334 4.76953,62.9256 c -3.814452,2.0454 -6.16601,5.8251 -6.17578,9.9145 v 53.0969 c 0,4.099 2.349609,7.887 6.17578,9.941 l 49.46487,26.553 c 3.8164,2.053 8.5293,2.053 12.3535,0 l 49.4741,-26.553 c 3.825,-2.054 6.18,-5.842 6.18,-9.941 v -0.021 c 0,-4.096 -2.355,-7.887 -6.18,-9.941 l -12.38,-6.64 c -3.8246,-2.053 -8.5277,-2.053 -12.3519,0 l -24.7422,13.281 c -3.8242,2.054 -8.5371,2.044 -12.3535,0 l -12.3692,-6.641 c -3.8144,-2.054 -6.1757,-5.843 -6.1757,-9.941 V 92.7439 c 0,-4.0991 2.3613,-7.8982 6.1855,-9.9436 L 54.2344,76.169 c 3.8242,-2.0538 8.5293,-2.0538 12.3418,0 l 24.7539,13.2641 c 3.8144,2.0426 8.5078,2.0426 12.3199,0.0083 l 12.395,-6.6217 c 3.834,-2.0454 6.197,-5.8445 6.197,-9.9519 0,-2.0537 -0.588,-4.0231 -1.656,-5.7394 -1.061,-1.7162 -2.615,-3.1794 -4.524,-4.2028 L 66.5879,36.3724 c -1.9121,-1.0261 -4.0449,-1.5392 -6.1797,-1.5392 -2.1328,0 -4.2656,0.5131 -6.1738,1.5392 z"
         inkscape:connector-curvature="0"
         style="fill:url(#paint_linear_451_10016_0);fill-opacity:1;fill-rule:evenodd" />
    </g>
  </g>
</svg>
