<svg width="18.742188" height="21.743000" viewBox="0 0 18.7422 21.743" fill="none" xmlns="http://www.w3.org/2000/svg" xmlns:xlink="http://www.w3.org/1999/xlink">
	<desc>
			Created with Pixso.
	</desc>
	<defs/>
	<path id="Vector" d="M10 13.252L10 15.342C9.0957 15.022 8.12695 14.9239 7.17578 15.0558C6.22461 15.1877 5.31836 15.5459 4.53516 16.1002C3.75195 16.6545 3.11328 17.3888 2.67188 18.2414C2.23047 19.094 2 20.04 2 21L0 20.999C0 19.7779 0.279297 18.5729 0.816406 17.4764C1.35352 16.3799 2.13477 15.4209 3.09961 14.673C4.06641 13.9251 5.18945 13.4081 6.38477 13.1616C7.58203 12.9152 8.81836 12.9457 10 13.251L10 13.252ZM8 12C4.68555 12 2 9.315 2 6C2 2.685 4.68555 0 8 0C11.3145 0 14 2.685 14 6C14 9.315 11.3145 12 8 12ZM8 10C10.2109 10 12 8.21 12 6C12 3.79 10.2109 2 8 2C5.78906 2 4 3.79 4 6C4 8.21 5.78906 10 8 10ZM13.793 18.914L17.3281 15.379L18.7422 16.793L13.793 21.743L10.2578 18.207L11.6719 16.793L13.793 18.914L13.793 18.914Z" fill="#4E0D5E" fill-opacity="1.000000" fill-rule="nonzero"/>
</svg>
