<svg width="18.000000" height="21.000000" viewBox="0 0 18 21" fill="none" xmlns="http://www.w3.org/2000/svg" xmlns:xlink="http://www.w3.org/1999/xlink">
	<desc>
			Created with Pixso.
	</desc>
	<defs/>
	<path id="Vector" d="M8 13L8 15C6.4082 15 4.88281 15.6321 3.75781 16.7574C2.63281 17.8826 2 19.4087 2 21L0 21C0 18.8783 0.84375 16.8434 2.34375 15.3431C3.84375 13.8429 5.87891 13 8 13ZM8 12C4.68555 12 2 9.315 2 6C2 2.685 4.68555 0 8 0C11.3145 0 14 2.685 14 6C14 9.315 11.3145 12 8 12ZM8 10C10.2109 10 12 8.21 12 6C12 3.79 10.2109 2 8 2C5.78906 2 4 3.79 4 6C4 8.21 5.78906 10 8 10ZM17 16L18 16L18 21L10 21L10 16L11 16L11 15C11 14.2044 11.3164 13.4413 11.8789 12.8787C12.4414 12.3161 13.2051 12 14 12C14.7949 12 15.5586 12.3161 16.1211 12.8787C16.6836 13.4413 17 14.2044 17 15L17 16ZM15 16L15 15C15 14.7348 14.8945 14.4804 14.707 14.2929C14.5195 14.1054 14.2656 14 14 14C13.7344 14 13.4805 14.1054 13.293 14.2929C13.1055 14.4804 13 14.7348 13 15L13 16L15 16Z" fill="#4E0D5E" fill-opacity="1.000000" fill-rule="nonzero"/>
</svg>
