<svg width="20" height="20" viewBox="0 0 20 20" fill="none" xmlns="http://www.w3.org/2000/svg">
<path d="M5.83333 8.33335V5.83335C5.83333 4.72828 6.27232 3.66848 7.05372 2.88708C7.83512 2.10567 8.89493 1.66669 10 1.66669C11.1051 1.66669 12.1649 2.10567 12.9463 2.88708C13.7277 3.66848 14.1667 4.72828 14.1667 5.83335V8.33335M10.8333 13.3334C10.8333 13.7936 10.4602 14.1667 10 14.1667C9.53976 14.1667 9.16667 13.7936 9.16667 13.3334C9.16667 12.8731 9.53976 12.5 10 12.5C10.4602 12.5 10.8333 12.8731 10.8333 13.3334ZM4.16667 8.33335H15.8333C16.7538 8.33335 17.5 9.07955 17.5 10V16.6667C17.5 17.5872 16.7538 18.3334 15.8333 18.3334H4.16667C3.24619 18.3334 2.5 17.5872 2.5 16.6667V10C2.5 9.07955 3.24619 8.33335 4.16667 8.33335Z" stroke="#FE000E" stroke-width="1.5" stroke-linecap="round" stroke-linejoin="round"/>
</svg>
